<?xml version="1.0" encoding="utf-8"?>
<!-- Generator: Adobe Illustrator 23.0.3, SVG Export Plug-In . SVG Version: 6.00 Build 0)  -->
<svg version="1.1" xmlns="http://www.w3.org/2000/svg" xmlns:xlink="http://www.w3.org/1999/xlink" x="0px" y="0px"
	 viewBox="0 0 595.3 841.9" style="enable-background:new 0 0 595.3 841.9;" xml:space="preserve">
<style type="text/css">
	.st0{fill:#606060;stroke:#5F5F5F;stroke-width:0.25;stroke-miterlimit:10;}
	.st1{fill:#606060;stroke:#5F5F5F;stroke-width:0.75;stroke-miterlimit:10;}
	.st2{fill:none;stroke:#444444;stroke-width:0.75;stroke-miterlimit:10;}
	.st3{fill:none;stroke:#444444;stroke-width:0.5;stroke-miterlimit:10;}
	.st4{fill:#606060;stroke:#5F5F5F;stroke-width:0.5;stroke-miterlimit:10;}
	.st5{fill:#606060;}
	.st6{fill:#589993;}
	.st7{fill:#FF8467;}
	.st8{fill:none;stroke:#000000;stroke-width:0.25;stroke-miterlimit:10;}
	.st9{fill:none;stroke:#159843;stroke-width:2;stroke-miterlimit:10;}
	.st10{fill:#68B834;}
	.st11{fill:#EBF6F9;stroke:#000000;stroke-width:0.5;stroke-miterlimit:10;}
	.st12{fill:#EAF5F7;stroke:#000000;stroke-width:0.5;stroke-miterlimit:10;}
	.st13{fill:#A1CD5C;stroke:#211613;stroke-width:0.5;stroke-miterlimit:10;}
	.st14{fill:#A1CD5C;stroke:#221714;stroke-width:0.5;stroke-miterlimit:10;}
	.st15{fill:#F08C57;}
	.st16{fill:#ED6F48;}
	.st17{fill:#FFFFFF;}
	.st18{font-family:'Impact';}
	.st19{font-size:39.1465px;}
	.st20{fill:url(#SVGID_1_);}
</style>
<g id="底框">
	<line class="st0" x1="37.6" y1="128.7" x2="556.2" y2="128.7"/>
	<g>
		<line class="st0" x1="37.6" y1="142.8" x2="556.2" y2="142.8"/>
		<line class="st0" x1="37.6" y1="156.9" x2="556.2" y2="156.9"/>
		<line class="st1" x1="37.6" y1="171" x2="556.2" y2="171"/>
		<line class="st2" x1="37.6" y1="185.1" x2="556.2" y2="185.1"/>
		<line class="st0" x1="37.6" y1="199.6" x2="556.2" y2="199.6"/>
		<line class="st0" x1="37.6" y1="227.8" x2="556.2" y2="227.8"/>
		<line class="st1" x1="37.6" y1="241.9" x2="556.2" y2="241.9"/>
		<line class="st3" x1="37.6" y1="256" x2="556.2" y2="256"/>
		<line class="st4" x1="37.6" y1="284.6" x2="556.2" y2="284.6"/>
		<line class="st0" x1="37.6" y1="270.5" x2="556.2" y2="270.5"/>
		<line class="st4" x1="37.6" y1="312.8" x2="556.2" y2="312.8"/>
		<line class="st0" x1="37.6" y1="326.9" x2="556.2" y2="326.9"/>
		<line class="st1" x1="37.6" y1="355.4" x2="556.2" y2="355.4"/>
		<line class="st0" x1="37.6" y1="341.3" x2="556.2" y2="341.3"/>
		<line class="st0" x1="37.6" y1="369.5" x2="556.2" y2="369.5"/>
		<line class="st3" x1="37.6" y1="397.7" x2="556.2" y2="397.7"/>
		<line class="st1" x1="37.6" y1="426.3" x2="556.2" y2="426.3"/>
		<line class="st0" x1="37.6" y1="412.2" x2="556.2" y2="412.2"/>
		<line class="st4" x1="37.6" y1="454.5" x2="556.2" y2="454.5"/>
		<line class="st3" x1="37.6" y1="468.6" x2="556.2" y2="468.6"/>
		<line class="st1" x1="37.6" y1="497.2" x2="556.2" y2="497.2"/>
		<line class="st0" x1="37.6" y1="483.1" x2="556.2" y2="483.1"/>
		<line class="st0" x1="37.6" y1="511.3" x2="556.2" y2="511.3"/>
		<line class="st1" x1="37.6" y1="568" x2="556.2" y2="568"/>
		<line class="st0" x1="37.6" y1="553.9" x2="556.2" y2="553.9"/>
		<line class="st0" x1="37.6" y1="582.1" x2="556.2" y2="582.1"/>
		<line class="st1" x1="37.6" y1="596.2" x2="556.2" y2="596.2"/>
		<line class="st2" x1="37.6" y1="610.3" x2="556.2" y2="610.3"/>
		<line class="st0" x1="37.6" y1="624.8" x2="556.2" y2="624.8"/>
		<line class="st0" x1="37.6" y1="653" x2="556.2" y2="653"/>
		<line class="st1" x1="37.6" y1="667.1" x2="556.2" y2="667.1"/>
		<line class="st2" x1="37.6" y1="681.2" x2="556.2" y2="681.2"/>
		<line class="st1" x1="37.6" y1="709.8" x2="556.2" y2="709.8"/>
		<line class="st0" x1="37.6" y1="723.9" x2="556.2" y2="723.9"/>
	</g>
	<line class="st1" x1="37.6" y1="738" x2="556.2" y2="738"/>
	<line class="st5" x1="37.6" y1="735" x2="556.2" y2="735"/>
	<path class="st6" d="M563.3,784.4H30.9c-4.4,0-7.9-3.6-7.9-7.9V760c0-4.4,3.6-7.9,7.9-7.9h532.4c4.4,0,7.9,3.6,7.9,7.9v16.5
		C571.2,780.8,567.6,784.4,563.3,784.4z"/>
	<path class="st6" d="M563.8,109.3H31.5c-4.4,0-7.9-3.6-7.9-7.9v-0.3c0-4.4,3.6-7.9,7.9-7.9h532.4c4.4,0,7.9,3.6,7.9,7.9v0.3
		C571.8,105.8,568.2,109.3,563.8,109.3z"/>
</g>
<g id="图层_1">
	<g>
		<path class="st7" d="M424.9,491.1l-2,9.5c-0.2,1.3-1.7,2.1-3,1.9l-7.7-1.7c-1.4,3.2-3.4,6-5.7,8.5l4.4,6.9
			c0.7,1.2,0.4,2.7-0.7,3.4l-8.2,5.2c-1.2,0.7-2.7,0.4-3.4-0.7l-4.3-6.6c-3.2,1.2-6.6,1.9-10.1,2l-1.8,7.9c-0.2,1.3-1.7,2.1-3,1.9
			l-9.5-2c-1.3-0.2-2.1-1.7-1.9-3l1.7-7.7c-3.2-1.4-6-3.4-8.5-5.7l-6.9,4.4c-1.2,0.7-2.7,0.4-3.4-0.7l-5.2-8.2
			c-0.7-1.2-0.4-2.7,0.7-3.4l6.6-4.3c-1.2-3.2-1.9-6.6-2-10.1l-7.9-1.8c-1.3-0.2-2.1-1.7-1.9-3l2-9.5c0.2-1.3,1.7-2.1,3-1.9l7.7,1.7
			c1.4-3.2,3.4-6,5.7-8.5l-4.4-6.9c-0.7-1.2-0.4-2.7,0.7-3.4l8.2-5.2c1.2-0.7,2.7-0.4,3.4,0.7l4.3,6.6c3.2-1.2,6.5-1.9,10.1-2
			l1.8-7.9c0.2-1.3,1.7-2.1,3-1.9l9.5,2c1.3,0.2,2.1,1.7,1.9,3l-1.7,7.7c3.2,1.4,6,3.4,8.5,5.7l6.9-4.4c1.2-0.7,2.7-0.4,3.4,0.7
			l5.2,8.2c0.7,1.2,0.4,2.7-0.7,3.4l-6.6,4.3c1.2,3.2,1.9,6.5,2,10.1l7.9,1.8C424.3,488.5,425.3,489.8,424.9,491.1z M405.5,492.4
			c2.7-12.3-5.2-24.5-17.5-27.1c-12.3-2.6-24.5,5.2-27.1,17.5c-2.7,12.3,5.2,24.5,17.5,27.1C390.7,512.6,402.9,504.7,405.5,492.4z"
			/>
		<g>
			<circle class="st8" cx="383.1" cy="487.7" r="22.9"/>
			<path class="st8" d="M423,488.3l-7.9-1.8c-0.1-3.6-0.8-6.9-2-10.1l6.6-4.3c1.2-0.7,1.4-2.3,0.7-3.4l-5.2-8.2
				c-0.7-1.2-2.3-1.4-3.4-0.7l-6.9,4.4c-2.5-2.4-5.3-4.3-8.5-5.7l1.7-7.7c0.2-1.3-0.6-2.6-1.9-3l-9.5-2c-1.3-0.2-2.6,0.6-3,1.9
				l-1.8,7.9c-3.6,0.1-6.9,0.8-10.1,2l-4.3-6.6c-0.7-1.2-2.3-1.4-3.4-0.7l-8.2,5.2c-1.2,0.7-1.4,2.3-0.7,3.4l4.4,6.9
				c-2.4,2.5-4.3,5.3-5.7,8.5l-7.7-1.7c-1.3-0.2-2.6,0.6-3,1.9l-2,9.5c-0.2,1.3,0.6,2.6,1.9,3l7.9,1.8c0.1,3.6,0.8,6.9,2,10.1
				l-6.6,4.3c-1.2,0.7-1.4,2.3-0.7,3.4l5.2,8.2c0.7,1.2,2.3,1.4,3.4,0.7l6.9-4.4c2.5,2.4,5.3,4.3,8.5,5.7l-1.7,7.7
				c-0.2,1.3,0.6,2.6,1.9,3l9.5,2c1.3,0.2,2.6-0.6,3-1.9l1.8-7.9c3.6-0.1,6.9-0.8,10.1-2l4.3,6.6c0.7,1.2,2.3,1.4,3.4,0.7l8.2-5.2
				c1.2-0.7,1.4-2.3,0.7-3.4l-4.4-6.9c2.4-2.5,4.3-5.3,5.7-8.5l7.7,1.7c1.3,0.2,2.6-0.6,3-1.9l2-9.5
				C425.3,489.8,424.3,488.5,423,488.3z"/>
		</g>
	</g>
	<g>
		<g>
			<line class="st9" x1="460" y1="563.5" x2="465.2" y2="542.8"/>
		</g>
	</g>
	<g>
		<g>
			<g>
				<circle class="st10" cx="455.9" cy="582" r="18.9"/>
			</g>
		</g>
	</g>
	<g>
		<g>
			<g>
				<circle class="st10" cx="395.1" cy="601" r="12"/>
			</g>
		</g>
	</g>
	<g>
		<g>
			<g>
				<circle class="st10" cx="506.6" cy="610" r="12"/>
			</g>
		</g>
	</g>
	<g>
		<g>
			<g>
				<circle class="st10" cx="467" cy="530.8" r="12"/>
			</g>
		</g>
	</g>
	<g>
		<g>
			<line class="st9" x1="473.5" y1="589" x2="496" y2="604.3"/>
		</g>
	</g>
	<g>
		<g>
			<line class="st9" x1="438" y1="588.1" x2="407.1" y2="598"/>
		</g>
	</g>
	<path class="st11" d="M111.4,164.3c0,0-5.1,9.9-3,22.5l-11.6,8c0,0,0.8,3.4,2,4.9l-32.4,22.1c0,0,0.1,1.3,0.7,1.4
		s35.5-16.4,35.5-16.4s2.3,4.2,3.8,4.8c0,0,10.1-5.2,11.8-6.2c0,0,12.2,9.1,21.3,9L111.4,164.3z"/>
	<polygon class="st11" points="249.3,151.4 141.4,213.3 113.3,163.3 221.2,101.2 	"/>
	<polygon class="st12" points="246.4,146.3 178.4,185.3 155.8,144.8 223.7,105.8 	"/>
	<polygon class="st13" points="192.6,153 180.2,130.8 184,128.7 196.3,150.8 	"/>
	<polygon class="st13" points="204.2,144 192.8,123.6 196.6,121.5 208,141.8 	"/>
	<polygon class="st13" points="214.6,134.5 204.7,116.8 208.4,114.6 218.3,132.3 	"/>
	<polygon class="st14" points="225.3,98.6 221.2,101.2 249.3,151.4 253.6,149.1 258.6,157.8 265.9,153.8 252.1,128.7 267.7,119.7 
		277,135.9 287.2,129.8 259.4,79.1 248.8,85.3 257.8,101.6 242,110.6 228.2,85.6 220.6,89.9 	"/>
	<path class="st7" d="M142.3,202.6l-19.9-35.5c-0.7-1.3-0.2-2.9,1.1-3.7l31.3-18c1.3-0.8,3-0.3,3.8,1l19.9,35.5
		c0.7,1.3,0.2,2.9-1.1,3.7l-31.3,18C144.7,204.3,143,203.9,142.3,202.6z"/>
	<path class="st7" d="M62,234.6c-0.1,1.6,0.2,3.1,1.2,4.3c1.8,2.1,5.2,2.7,7.7,1.7c3.9-1.6,2.7-6.5,1.6-9.5c-0.3-0.9-5.9-10.2-6-10
		c-1.4,2.7-2.6,5.7-3.5,8.6C62.5,231.1,62.1,232.8,62,234.6z"/>
	<g>
		<g>
			<g>
				<path class="st15" d="M491.7,721H199.3c-8.6,0-15.6-7-15.6-15.6v-36c0-8.6,7-15.6,15.6-15.6h292.4c8.6,0,15.6,7,15.6,15.6v36
					C507.3,714,500.3,721,491.7,721z"/>
			</g>
		</g>
		<path class="st16" d="M485.5,716.5H203.8c-8.6,0-15.6-7-15.6-15.6v-27.1c0-8.6,7-15.6,15.6-15.6h281.7c8.6,0,15.6,7,15.6,15.6V701
			C501.1,709.5,494.1,716.5,485.5,716.5z"/>
	</g>
	<text transform="matrix(1 0 0 1 200.5259 700.0016)" class="st17 st18 st19">Basic introduction</text>
	<g>
		<path class="st7" d="M131.5,250.8h-3.1c0.2-2.2,0.3-4,0.3-5.3c0-4-1.1-6.8-3.4-8.3c-2.3-1.5-5.2-2.4-8.6-2.4
			c-4.6,0-9.3,1.3-14.3,4.1c-5,2.8-9.2,7-12.8,12.8c-3.5,5.8-5.3,11.7-5.3,17.8c0,5.9,1.6,10.5,5,13.6c3.3,3.1,7.4,4.8,12.4,4.8
			c6.8,0,13-3,18.6-8.9c0.6-0.6,1.1-0.9,1.8-0.9c0.5,0,1,0.1,1.2,0.4c0.4,0.3,0.5,0.5,0.5,0.9c0,0.8-1.2,2.3-3.8,4.5
			s-5.8,4.1-9.7,5.5c-3.9,1.5-7.7,2.2-11.5,2.2c-4.6,0-8.8-0.9-12.7-2.6s-7-4.2-9.1-7.4c-2.2-3.2-3.2-7.1-3.2-11.5
			c0-6.2,2.2-12.4,6.7-18.5c4.4-6.1,9.9-10.9,16.6-14.2s13.2-5,19.5-5c2.3,0,4.6,0.2,6.8,0.6c1,0.2,5,1.1,11.9,3
			C133,240.7,131.8,245.6,131.5,250.8z"/>
		<path class="st7" d="M181.5,280.8l-0.8,2.4c-2.7,0.4-4.9,0.7-6.6,0.7c-1.6,0-4.3-0.1-8-0.4c-2.9-0.2-5.3-0.3-7.6-0.3
			c-3.9,0-7.8,0.3-11.9,0.8l0.8-2.3c3.9-0.3,6.8-0.9,8.5-1.8c1.2-0.7,2.4-1.7,3.2-3.3c1-1.5,3-7.1,6.2-16.4l7.4-22.5l0.4-1
			c-2.3-0.1-4-0.1-5.2-0.1c-7.2,0-12.8,0.6-17,1.7c-4.2,1.1-7.3,2.8-9.4,5c-2.1,2.2-3.1,4.5-3.1,7c0,0.9,0.2,1.7,0.7,2.4
			c0.3,0.5,1.1,1.3,2.6,2.5c1.3,1,2,2,2,2.9c0,0.8-0.4,1.4-1.1,1.9c-0.8,0.6-1.7,0.8-2.8,0.8c-1.6,0-3-0.6-3.9-1.7
			c-1.4-1.6-2.2-3.8-2.2-6.4c0-3.4,1.4-6.8,4.4-10c3-3.2,7-5.8,12-7.5c5.1-1.8,11.3-2.7,18.6-2.7c3.4,0,9.1,0.4,16.6,1.1
			c5.4,0.5,9.3,0.8,11.7,0.8s4.2-0.3,5.2-0.9c1-0.6,1.5-1.4,1.5-2.4c0-0.2-0.1-0.6-0.2-1.1c-0.1-0.6-0.2-0.9-0.2-1
			c0-0.8,0.4-1.4,1-1.9s1.5-0.8,2.5-0.8c1.1,0,2.1,0.3,2.9,1c0.8,0.7,1.1,1.4,1.1,2.5c0,2.2-1.5,4-4.7,5.5
			c-3.1,1.5-8.4,2.3-15.6,2.3c-2.7,0-5.4-0.1-8.4-0.3c-0.4,1-1.6,4.5-3.6,10.4l-5.1,14.7l-3.1,9l-3.2,10.2c2.6,0.2,4.8,0.4,6.4,0.4
			C176,281.6,178.7,281.3,181.5,280.8z"/>
		<path class="st7" d="M221.1,242.4l0.6-1.8c4.2-0.3,9.2-0.9,14.9-1.9c-1.6,3.1-3.1,6.7-4.4,10.7l-3.8,11.8
			c-2.8,8.6-5.8,15-9.3,19.4c3.3,0.5,6.3,0.8,8.8,0.8c6.8,0,12.7-1,17.6-3.1c5.1-2.1,9-5.2,11.9-9.1c3-4,4.4-8.4,4.4-13.2
			c0-6.3-2.5-11.3-7.5-15.2c-5.1-3.8-11.5-5.7-19.6-5.7c-6.9,0-13.3,1.1-19.4,3.5c-6.1,2.4-10.9,5.5-14.4,9.4
			c-3.5,3.9-5.3,7.7-5.3,11.4c0,3.6,2.2,6.3,6.5,8c1.2,0.5,2,1,2.4,1.3s0.6,0.9,0.6,1.3c0,0.7-0.4,1.2-1,1.8
			c-0.8,0.6-1.5,0.8-2.5,0.8c-2.1,0-4-1-6-3c-2.7-2.8-3.9-5.6-3.9-8.5c0-4.9,2-9.5,5.9-14.1s9.4-8.1,16.6-10.9c7.2-2.8,15-4,23.6-4
			c10.7,0,19.2,2.1,25.5,6.3c6.3,4.2,9.4,9.4,9.4,15.7c0,5.8-2.2,11.3-6.6,16.1c-4.4,4.9-9.7,8.4-15.9,10.5
			c-6.2,2.1-12.5,3.1-18.7,3.1c-2,0-5.5-0.1-10.4-0.4c-4.2-0.2-8.1-0.4-11.8-0.4c-1.7,0-4.4,0-7.9,0.1l1.3-2.1
			c3.5-0.1,5.7-0.4,6.7-0.7s1.6-0.9,2.2-1.5c1.1-1.3,2.7-4.1,4.6-8.5l4-11.1l4.7-13.8c0.2-0.7,0.4-1.2,0.4-1.7s-0.2-0.8-0.6-1
			c-0.4-0.3-1-0.4-1.6-0.4C222.5,242.3,222,242.4,221.1,242.4z"/>
		<path class="st7" d="M303.3,251.5c-3,3.5-5.1,6.6-6.2,9.3s-1.7,5.3-1.7,7.9c0,2.4,0.8,6.2,2.2,11.4c8.6-4.8,14.6-9.2,18.1-13.4
			c3.5-4.1,5.3-7.7,5.3-10.7c0-0.9-0.5-2-1.3-3.3c-1-1.4-1.4-2.5-1.4-3.1c0-0.8,0.4-1.3,1-1.9s1.5-0.9,2.5-0.9
			c1.2,0,2.3,0.4,3.1,1.2c0.8,0.8,1.1,2.2,1.1,4.1c0,6-3,11.9-8.8,17.6c-7.2,7.1-16.2,12.4-27.2,16.2c-0.3-1.3-0.8-3.4-1.6-6.4
			c-1.6-5.8-2.4-9.9-2.4-12.2c0-3.1,1-5.9,2.9-8.8c1.9-2.9,4.8-5.3,8.6-7.4c-6.8,0.1-11.6,0.7-14.6,1.6c-2.1,0.8-3.1,1.6-3.1,2.6
			c0,0.4,0.3,1,0.8,2c0.4,0.7,0.5,1.2,0.5,1.6c0,0.5-0.3,0.9-0.8,1.2s-1.1,0.6-1.9,0.6c-1,0-1.8-0.3-2.6-1c-0.7-0.7-1-1.4-1-2.5
			c0-1.6,0.8-3.1,2.3-4.5s4.1-2.4,7.8-3.1c3.7-0.8,8.6-1.1,14.7-1c2.5-0.8,4-1.1,4.7-1.1c0.6,0,1.1,0.2,1.7,0.6
			c0.5,0.4,0.8,0.8,0.8,1.1C306.9,250.1,305.7,250.9,303.3,251.5z"/>
		<path class="st7" d="M330.7,257.4l-2.6-1.4c3.8-3.1,7.3-5.3,10.6-6.7c3.1-1.3,5.9-2,8.1-2c1.2,0,2.2,0.2,2.9,0.6
			c0.7,0.4,1,1,1,1.6c0,0.9-1.2,4.3-3.7,10.4c-4.1,10-6.1,16.1-6.1,18.1c0,0.4,0.1,0.8,0.4,1c0.3,0.3,0.6,0.4,0.9,0.4
			c1.2,0,4.4-1.7,9.5-5.2l2.3,1.6c-5.2,3.6-9.2,6-11.6,7c-2.4,1-4.4,1.5-6,1.5c-1.3,0-2.4-0.3-3.2-1c-0.8-0.7-1.1-1.5-1.1-2.6
			c0-3.5,2.9-12.2,8.7-25.9c0.3-0.7,0.4-1.2,0.4-1.7c0-0.6-0.4-0.9-1-0.9c-0.8,0-1.6,0.2-2.7,0.7C336.3,253.5,334.1,255,330.7,257.4
			z M353.5,229.3c1.2,0,2.2,0.3,3,0.9c0.8,0.6,1.1,1.3,1.1,2.2c0,1.2-0.6,2.4-1.7,3.2c-1.1,1-2.5,1.4-4,1.4c-1.1,0-2.1-0.3-2.9-0.9
			c-0.8-0.6-1.1-1.3-1.1-2.3c0-1.2,0.6-2.4,1.7-3.2C350.6,229.8,352,229.3,353.5,229.3z"/>
		<path class="st7" d="M389.1,274l1.2,2.5c-9.2,5.2-17,7.9-23.3,7.9c-3.3,0-5.8-0.9-7.3-2.7c-1.5-1.7-2.3-4-2.3-6.7
			c0-4.5,1.6-9.1,4.9-13.8c3.2-4.7,7.2-8.4,11.8-10.9c3.6-1.9,7.7-3,12.3-3c2.9,0,5.1,0.4,6.5,1.1s2.2,1.7,2.2,2.9
			c0,0.9-0.4,1.6-1.1,2.1c-0.8,0.6-1.8,0.9-3.2,0.9c-1.3,0-3.1-0.5-5.2-1.3c-2.2-1-4-1.4-5.5-1.4c-1.9,0-3.8,0.7-5.6,1.9
			c-1.8,1.2-3.6,3.7-5.3,7.3c-1.7,3.6-2.6,7.2-2.6,10.9c0,2.7,0.8,4.8,2.1,6.2c1,1.1,2.5,1.7,4.4,1.7
			C377.4,279.8,382.9,277.9,389.1,274z"/>
	</g>
	
		<linearGradient id="SVGID_1_" gradientUnits="userSpaceOnUse" x1="49.1102" y1="-824.8727" x2="343.4893" y2="-824.8727" gradientTransform="matrix(1 0 0 1 0 1283.9999)">
		<stop  offset="0" style="stop-color:#2F5A60"/>
		<stop  offset="0.7996" style="stop-color:#96D5C9"/>
		<stop  offset="1" style="stop-color:#FF8467"/>
	</linearGradient>
	<path class="st20" d="M337.4,414.6l6,33.6c0.8,4.7-2.3,9.3-7,10.2l-27.5,4.9c-0.4,12.4-2.9,24.3-7.2,35.5l23.7,16.5
		c4,2.7,4.9,8.2,2.2,12.1L308,555.5c-2.7,4-8.2,4.9-12.1,2.2l-22.9-16c-8.8,8.2-18.9,15-30.1,20.1l5.1,28.4c0.8,4.7-2.3,9.3-7,10.2
		l-33.6,6c-4.7,0.8-9.3-2.3-10.2-7l-4.9-27.5c-12.4-0.4-24.3-2.9-35.5-7.2l-16.5,23.7c-2.7,4-8.2,4.9-12.1,2.2L100,570.8
		c-4-2.7-4.9-8.2-2.2-12.1l16-22.9c-8.2-8.8-15-18.9-20.1-30.1l-28.4,5.1c-4.7,0.8-9.3-2.3-10.2-7l-6-33.6c-0.8-4.7,2.3-9.3,7-10.2
		l27.5-4.9c0.4-12.4,2.9-24.3,7.1-35.5l-23.7-16.7c-4-2.7-4.9-8.2-2.2-12.1l19.6-28.1c2.7-4,8.2-4.9,12.1-2.2l22.9,16
		c8.8-8.2,18.9-15,30.1-20l-5.1-28.4c-0.8-4.7,2.3-9.3,7-10.2l33.6-6c4.7-0.8,9.3,2.3,10.2,7l4.9,27.5c12.4,0.4,24.3,2.9,35.5,7.2
		l16.5-23.7c2.7-4,8.2-4.9,12.1-2.2l28.1,19.5c4,2.7,4.9,8.2,2.2,12.1l-16,22.9c8.2,8.8,15,18.9,20,30.1l28.4-5.1
		C331.9,406.8,336.6,409.9,337.4,414.6z M275.6,444.9c-7.8-43.9-49.7-73.1-93.6-65.2c-43.9,7.8-73.1,49.7-65.2,93.6
		s49.7,73,93.6,65.2C254.4,530.6,283.5,488.7,275.6,444.9z"/>
	<g>
		<path class="st10" d="M183.1,510.8l-37.9-38.4c-7.2-7.3-7.2-19.3,0-26.6l37.9-38.4c7.2-7.3,19.1-7.3,26.3,0l37.9,38.4
			c7.2,7.3,7.2,19.3,0,26.6l-37.9,38.4C202.2,518.2,190.3,518.2,183.1,510.8z"/>
		<polygon class="st17" points="228.9,444.1 208.4,444.1 208.4,423.3 184.2,423.3 184.2,444.1 163.7,444.1 163.7,468.6 184.2,468.6 
			184.2,489.4 208.4,489.4 208.4,468.6 228.9,468.6 		"/>
	</g>
</g>
</svg>
