<?xml version="1.0" encoding="utf-8"?>
<!-- Generator: Adobe Illustrator 23.0.3, SVG Export Plug-In . SVG Version: 6.00 Build 0)  -->
<svg version="1.1" id="图层_2" xmlns="http://www.w3.org/2000/svg" xmlns:xlink="http://www.w3.org/1999/xlink" x="0px" y="0px"
	 viewBox="0 0 209.18 192.51" style="enable-background:new 0 0 209.18 192.51;" xml:space="preserve">
<style type="text/css">
	.st0{fill:#7ABD33;}
	.st1{fill:#BBBAC0;}
	.st2{fill:#FFFFFF;}
	.st3{fill:#348DCD;}
	.st4{fill:#72C3BF;stroke:#ED8D26;stroke-width:3;stroke-miterlimit:10;}
	.st5{fill:none;stroke:#72C3BF;stroke-width:5;stroke-miterlimit:10;}
	.st6{fill:#EC8E25;}
	.st7{fill:#FFFFFF;stroke:#EC8E25;stroke-miterlimit:10;}
	.st8{fill:none;stroke:#72C3BF;stroke-width:3;stroke-miterlimit:10;}
	.st9{fill:none;stroke:#9DB63E;stroke-width:3;stroke-miterlimit:10;}
	.st10{fill:none;stroke:#BBBAC0;stroke-width:5;stroke-miterlimit:10;}
</style>
<path class="st0" d="M108.44,14.46v170.91c0,1.15-0.94,2.08-2.08,2.08h-2.89c-1.15,0-2.08-0.94-2.08-2.08V14.46
	c0-1.15,0.94-2.08,2.08-2.08h2.89C107.5,12.38,108.44,13.32,108.44,14.46z"/>
<path class="st0" d="M13.71,93.47h182.4c1.15,0,2.08,0.94,2.08,2.08v2.4c0,1.15-0.94,2.08-2.08,2.08H13.71
	c-1.15,0-2.08-0.94-2.08-2.08v-2.4C11.62,94.41,12.56,93.47,13.71,93.47z"/>
<g>
	<ellipse class="st1" cx="56.06" cy="48" rx="34.89" ry="22.93"/>
	<ellipse class="st2" cx="60.64" cy="49.96" rx="26.65" ry="15.79"/>
	<g>
		<path class="st3" d="M49.65,39.04h25.26c0,0,7.58,2.02,9.35,8.84c1.77,6.82-6.57,12.38-8.34,11.37l11.37,18.19H74.15l-7.83-14.91
			h-4.8v14.91H49.65V39.04z"/>
		<path class="st2" d="M61.77,46.87v6.82h8.34c0,0,4.8-4.04,0-6.82H61.77z"/>
	</g>
</g>
<g>
	<g>
		<line class="st4" x1="29.54" y1="157.72" x2="40.49" y2="170.28"/>
		<line class="st4" x1="43.11" y1="144" x2="53.2" y2="155.57"/>
		<line class="st4" x1="57.79" y1="134.9" x2="66.73" y2="145.15"/>
		<line class="st4" x1="73.43" y1="117.18" x2="83.53" y2="128.77"/>
		<line class="st4" x1="48.79" y1="136.86" x2="61.24" y2="151.15"/>
	</g>
	<path class="st5" d="M76.16,110.9c-6.48,5.08-9.18,13.71-6.57,21.54c2.52,7.55-0.18,14.65-6.25,19.54
		c-6.02,4.85-13.77,5.02-21.08,3.33c-7.41-1.72-16.29-0.17-20.76,6.57"/>
	<g>
		<g>
			<path class="st5" d="M34.91,176.59c7.46-2.88,8.7-11.17,8.4-18.22c-0.31-7.04-3.67-15.76,2.13-21.52
				c6.27-6.22,16.38-4.9,24.34-4.43c7.21,0.42,15.36-0.1,19.89-6.57c0.05-0.08,0.11-0.15,0.16-0.23"/>
		</g>
	</g>
</g>
<g>
	<path class="st6" d="M132.26,130.37c-5.35,0.25-8.97,7.48-9.31,12.08c-0.33,4.43,1.4,8.94,4.45,12.16
		c1.38,1.45,3.03,2.67,4.95,3.29c2.63,0.84,5.64,0.67,8.36,0.66c2.63-0.01,5.26-0.09,7.89-0.14l23.16-0.04
		c4.32,0.02,8.65,0.05,12.97,0.07c4.62,0.02,8.51-0.97,11.13-5.02c2.62-4.04,2.95-9.49,0.9-13.79c-2.07-4.35-6.49-7.48-11.28-7.99
		c0.93-4.11-0.24-8.55-2.73-11.95c-3.95-5.39-11.48-8.79-18.15-8.12c-3.68,0.37-7.11,1.97-9.85,4.44c-0.57,0.51-5.89,6.27-5.81,6.31
		c-6.15-3.63-14.82,0.11-16.36,7.13"/>
	<path class="st7" d="M136.21,155.73c-4.02-4.36-4.66-12.29-0.26-15.6c0.29-0.22,3.36-1.31,3.36-1.32c0.07-2.55,1.03-5.53,3.43-6.79
		c1.81-0.95,3.64-0.58,5.42,0.1c0.16,0.06,1.66,0.66,2.56,1.04c0.39,0.17,0.84,0.03,1.07-0.32c2.26-3.38,4.88-6.76,8.66-8.17
		c3.29-1.22,7.02-0.74,10.26,0.59c2.85,1.17,5.57,3.11,6.76,6.06c0.6,1.49,0.78,3.11,0.79,4.7c0,0.3-0.17,2.78-0.27,3.86
		c-0.03,0.29,0.17,0.55,0.45,0.6c1.77,0.34,3.55,0.73,5.19,1.49c3.46,1.62,5.11,5.63,4.21,9.27c-0.54,2.19-1.99,3.84-4.03,4.76
		c-2.64,1.19-5.37,0.95-8.19,0.95c-3.8,0-7.6,0-11.41,0c-4.37,0-8.75,0-13.12,0c-3.82,0-7.65,0.1-11.46,0
		C138.35,156.91,137.14,156.66,136.21,155.73z"/>
	<path class="st6" d="M171.17,159.95l-3.97,0v-10.38c0-0.7-0.57-1.27-1.27-1.27h-6.38c-0.7,0-1.27,0.57-1.27,1.27v10.37l-3.87,0
		c-0.53,0-0.85,0.55-0.56,0.97l4.13,5.89l4.25,6.07c0.26,0.38,0.85,0.38,1.12,0l4.26-6.06l4.14-5.88
		C172.02,160.51,171.7,159.95,171.17,159.95z"/>
</g>
<g>
	<polyline class="st8" points="135.77,31.53 153.2,31.53 153.2,50.98 170.88,50.98 170.88,67.91 	"/>
	<polyline class="st9" points="138.8,42.14 160.02,42.14 160.02,62.85 182.25,62.85 	"/>
	<line class="st9" x1="177.6" y1="28.1" x2="183.79" y2="28.1"/>
	<line class="st8" x1="177.63" y1="33.96" x2="183.82" y2="33.96"/>
	<line class="st10" x1="192.81" y1="80.02" x2="128.19" y2="80.02"/>
	<line class="st10" x1="127.98" y1="20.22" x2="128.44" y2="78.7"/>
</g>
</svg>
