<?xml version="1.0" encoding="utf-8"?>
<!-- Generator: Adobe Illustrator 23.0.3, SVG Export Plug-In . SVG Version: 6.00 Build 0)  -->
<svg version="1.1" id="图层_1" xmlns="http://www.w3.org/2000/svg" xmlns:xlink="http://www.w3.org/1999/xlink" x="0px" y="0px"
	 viewBox="0 0 2182.7 385" style="enable-background:new 0 0 2182.7 385;" xml:space="preserve">
<style type="text/css">
	.st0{fill:#FFFFFF;}
	.st1{fill:#142640;}
	.st2{fill:none;stroke:#1D9328;stroke-width:1.2844;stroke-miterlimit:10;}
	.st3{fill:url(#SVGID_1_);stroke:url(#SVGID_2_);stroke-width:0.6422;stroke-miterlimit:10;}
	.st4{fill:url(#SVGID_3_);stroke:url(#SVGID_4_);stroke-width:0.6422;stroke-miterlimit:10;}
	.st5{fill:url(#SVGID_5_);stroke:url(#SVGID_6_);stroke-width:0.6422;stroke-miterlimit:10;}
	.st6{fill:url(#SVGID_7_);stroke:url(#SVGID_8_);stroke-width:0.6422;stroke-miterlimit:10;}
	.st7{fill:url(#SVGID_9_);stroke:url(#SVGID_10_);stroke-width:0.6422;stroke-miterlimit:10;}
	.st8{fill:#F0F3FF;}
	.st9{fill:#567BFF;}
	.st10{fill:#24F2DC;}
	.st11{fill:#48DAE0;}
	.st12{fill:#00BFB7;}
	.st13{fill:#4C64E0;}
	.st14{fill:#2B3E5B;}
	.st15{fill:#E48558;stroke:#231815;stroke-width:0.4316;stroke-miterlimit:10;}
	.st16{fill:#7E62A7;}
	.st17{fill:#BAE1F6;}
	.st18{opacity:0.5;fill:#FFFFFF;enable-background:new    ;}
	.st19{fill:#6AB448;stroke:#0C233D;stroke-width:0.4406;stroke-miterlimit:10;}
	.st20{fill:#E48558;stroke:#231815;stroke-width:0.4406;stroke-miterlimit:10;}
	.st21{fill:#6AB448;stroke:#0C233D;stroke-width:0.3376;stroke-miterlimit:10;}
	.st22{fill:#5297D2;stroke:#231815;stroke-width:0.2203;stroke-miterlimit:10;}
	.st23{fill:url(#SVGID_11_);stroke:#000000;stroke-width:0.4564;stroke-miterlimit:10;}
	.st24{fill:url(#SVGID_12_);stroke:#000000;stroke-width:0.4564;stroke-miterlimit:10;}
	.st25{fill:url(#SVGID_13_);stroke:#000000;stroke-width:0.4564;stroke-miterlimit:10;}
	.st26{fill:url(#SVGID_14_);stroke:#000000;stroke-width:0.4564;stroke-miterlimit:10;}
	.st27{fill:url(#SVGID_15_);stroke:#000000;stroke-width:0.4564;stroke-miterlimit:10;}
	.st28{fill:url(#SVGID_16_);stroke:#000000;stroke-width:0.4564;stroke-miterlimit:10;}
	.st29{fill:url(#SVGID_17_);stroke:#000000;stroke-width:0.4564;stroke-miterlimit:10;}
	.st30{fill:url(#SVGID_18_);stroke:#000000;stroke-width:0.4564;stroke-miterlimit:10;}
	.st31{fill:url(#SVGID_19_);stroke:#000000;stroke-width:0.4564;stroke-miterlimit:10;}
	.st32{fill:url(#SVGID_20_);stroke:#000000;stroke-width:0.4564;stroke-miterlimit:10;}
	.st33{fill:url(#SVGID_21_);stroke:#000000;stroke-width:0.4564;stroke-miterlimit:10;}
	.st34{fill:url(#SVGID_22_);stroke:#000000;stroke-width:0.4564;stroke-miterlimit:10;}
	.st35{fill:none;stroke:#000000;stroke-width:2.4344;stroke-miterlimit:10;}
</style>
<path class="st0" d="M2882.5,459.8"/>
<g id="背景">
	<g>
		<rect y="-1.6" class="st1" width="2182.7" height="388.2"/>
	</g>
</g>
<g>
	<g>
		<ellipse class="st2" cx="2124.6" cy="336.1" rx="11.9" ry="39.6"/>
		<ellipse transform="matrix(0.5 -0.866 0.866 0.5 771.0915 2008.0264)" class="st2" cx="2124.6" cy="336.2" rx="11.9" ry="39.5"/>
		<ellipse transform="matrix(0.866 -0.5 0.5 0.866 116.5367 1107.2075)" class="st2" cx="2124.3" cy="336.1" rx="39.5" ry="11.9"/>
	</g>
	
		<radialGradient id="SVGID_1_" cx="2125.5173" cy="-9.3121" r="7.5441" fx="2121.0933" fy="-12.6458" gradientTransform="matrix(1 0 0 1 0 344.8616)" gradientUnits="userSpaceOnUse">
		<stop  offset="9.650001e-02" style="stop-color:#FFFFFF"/>
		<stop  offset="0.1911" style="stop-color:#FAE6D7"/>
		<stop  offset="0.36" style="stop-color:#F1B793"/>
		<stop  offset="0.5213" style="stop-color:#E98F5E"/>
		<stop  offset="0.6702" style="stop-color:#E36F39"/>
		<stop  offset="0.8042" style="stop-color:#DF5823"/>
		<stop  offset="0.9187" style="stop-color:#DD4816"/>
		<stop  offset="1" style="stop-color:#DC4213"/>
	</radialGradient>
	
		<radialGradient id="SVGID_2_" cx="2125.5173" cy="-9.3123" r="7.8646" gradientTransform="matrix(1 0 0 1 0 344.8616)" gradientUnits="userSpaceOnUse">
		<stop  offset="0" style="stop-color:#EA5019"/>
		<stop  offset="0.1686" style="stop-color:#EA531C"/>
		<stop  offset="0.303" style="stop-color:#EB5B24"/>
		<stop  offset="0.4258" style="stop-color:#EC6931"/>
		<stop  offset="0.5415" style="stop-color:#EE7C45"/>
		<stop  offset="0.6523" style="stop-color:#F19461"/>
		<stop  offset="0.7595" style="stop-color:#F5B086"/>
		<stop  offset="0.8637" style="stop-color:#FAD0B5"/>
		<stop  offset="0.9631" style="stop-color:#FEF3EB"/>
		<stop  offset="1" style="stop-color:#FFFFFF"/>
	</radialGradient>
	<circle class="st3" cx="2125.5" cy="335.5" r="7.5"/>
	
		<radialGradient id="SVGID_3_" cx="2124.5657" cy="-35.3864" r="3.9764" fx="2122.2339" fy="-37.1436" gradientTransform="matrix(1 0 0 1 0 344.8616)" gradientUnits="userSpaceOnUse">
		<stop  offset="0" style="stop-color:#FFFFFF"/>
		<stop  offset="0.135" style="stop-color:#E0EEF3"/>
		<stop  offset="0.3509" style="stop-color:#AFD4DF"/>
		<stop  offset="0.5528" style="stop-color:#80BFD0"/>
		<stop  offset="0.7345" style="stop-color:#57B1C5"/>
		<stop  offset="0.8896" style="stop-color:#33A9BF"/>
		<stop  offset="1" style="stop-color:#1EA6BD"/>
	</radialGradient>
	
		<radialGradient id="SVGID_4_" cx="2124.5674" cy="-35.3854" r="4.2982" gradientTransform="matrix(1 0 0 1 0 344.8616)" gradientUnits="userSpaceOnUse">
		<stop  offset="0" style="stop-color:#1F85AE"/>
		<stop  offset="0.1803" style="stop-color:#2887AF"/>
		<stop  offset="0.3241" style="stop-color:#3D8CB2"/>
		<stop  offset="0.4553" style="stop-color:#5695B8"/>
		<stop  offset="0.579" style="stop-color:#73A2C1"/>
		<stop  offset="0.6975" style="stop-color:#94B4CE"/>
		<stop  offset="0.812" style="stop-color:#B9CCDD"/>
		<stop  offset="0.9213" style="stop-color:#E0E8F0"/>
		<stop  offset="1" style="stop-color:#FFFFFF"/>
	</radialGradient>
	<circle class="st4" cx="2124.6" cy="309.5" r="3.9"/>
	
		<radialGradient id="SVGID_5_" cx="2156.189" cy="-9.3121" r="3.9759" fx="2153.8574" fy="-11.0691" gradientTransform="matrix(1 0 0 1 0 344.8616)" gradientUnits="userSpaceOnUse">
		<stop  offset="0" style="stop-color:#FFFFFF"/>
		<stop  offset="0.135" style="stop-color:#E0EEF3"/>
		<stop  offset="0.3509" style="stop-color:#AFD4DF"/>
		<stop  offset="0.5528" style="stop-color:#80BFD0"/>
		<stop  offset="0.7345" style="stop-color:#57B1C5"/>
		<stop  offset="0.8896" style="stop-color:#33A9BF"/>
		<stop  offset="1" style="stop-color:#1EA6BD"/>
	</radialGradient>
	
		<radialGradient id="SVGID_6_" cx="2156.1897" cy="-9.3124" r="4.2977" gradientTransform="matrix(1 0 0 1 0 344.8616)" gradientUnits="userSpaceOnUse">
		<stop  offset="0" style="stop-color:#1F85AE"/>
		<stop  offset="0.1803" style="stop-color:#2887AF"/>
		<stop  offset="0.3241" style="stop-color:#3D8CB2"/>
		<stop  offset="0.4553" style="stop-color:#5695B8"/>
		<stop  offset="0.579" style="stop-color:#73A2C1"/>
		<stop  offset="0.6975" style="stop-color:#94B4CE"/>
		<stop  offset="0.812" style="stop-color:#B9CCDD"/>
		<stop  offset="0.9213" style="stop-color:#E0E8F0"/>
		<stop  offset="1" style="stop-color:#FFFFFF"/>
	</radialGradient>
	<circle class="st5" cx="2156.2" cy="335.5" r="3.9"/>
	
		<radialGradient id="SVGID_7_" cx="2108.4023" cy="19.2328" r="3.9766" fx="2106.0703" fy="17.4755" gradientTransform="matrix(1 0 0 1 0 344.8616)" gradientUnits="userSpaceOnUse">
		<stop  offset="0" style="stop-color:#FFFFFF"/>
		<stop  offset="0.1048" style="stop-color:#FFFDE4"/>
		<stop  offset="0.2917" style="stop-color:#FFF9AF"/>
		<stop  offset="0.4701" style="stop-color:#FFF57A"/>
		<stop  offset="0.635" style="stop-color:#FFF346"/>
		<stop  offset="0.7833" style="stop-color:#FFF200"/>
		<stop  offset="0.91" style="stop-color:#FFF100"/>
		<stop  offset="1" style="stop-color:#FFF100"/>
	</radialGradient>
	
		<radialGradient id="SVGID_8_" cx="2108.4023" cy="19.2315" r="4.299" gradientTransform="matrix(1 0 0 1 0 344.8616)" gradientUnits="userSpaceOnUse">
		<stop  offset="0" style="stop-color:#FFF100"/>
		<stop  offset="0.1638" style="stop-color:#FFF100"/>
		<stop  offset="0.2944" style="stop-color:#FFF100"/>
		<stop  offset="0.4136" style="stop-color:#FFF205"/>
		<stop  offset="0.526" style="stop-color:#FFF344"/>
		<stop  offset="0.6338" style="stop-color:#FFF56B"/>
		<stop  offset="0.7379" style="stop-color:#FFF794"/>
		<stop  offset="0.8391" style="stop-color:#FFFABD"/>
		<stop  offset="0.9356" style="stop-color:#FFFDE5"/>
		<stop  offset="1" style="stop-color:#FFFFFF"/>
	</radialGradient>
	<path class="st6" d="M2108.4,360.1c2.2,0,3.9,1.7,3.9,3.9s-1.7,3.9-3.9,3.9c-2.2,0-3.9-1.7-3.9-3.9
		C2104.5,362,2106.2,360.1,2108.4,360.1z"/>
	
		<radialGradient id="SVGID_9_" cx="2137.7046" cy="17.218" r="2.0172" fx="2136.5217" fy="16.3265" gradientTransform="matrix(1 0 0 1 0 344.8616)" gradientUnits="userSpaceOnUse">
		<stop  offset="0" style="stop-color:#FFFFFF"/>
		<stop  offset="0.135" style="stop-color:#E0EEF3"/>
		<stop  offset="0.3509" style="stop-color:#AFD4DF"/>
		<stop  offset="0.5528" style="stop-color:#80BFD0"/>
		<stop  offset="0.7345" style="stop-color:#57B1C5"/>
		<stop  offset="0.8896" style="stop-color:#33A9BF"/>
		<stop  offset="1" style="stop-color:#1EA6BD"/>
	</radialGradient>
	
		<radialGradient id="SVGID_10_" cx="2137.7034" cy="17.2183" r="2.3382" gradientTransform="matrix(1 0 0 1 0 344.8616)" gradientUnits="userSpaceOnUse">
		<stop  offset="0" style="stop-color:#1F85AE"/>
		<stop  offset="0.1803" style="stop-color:#2887AF"/>
		<stop  offset="0.3241" style="stop-color:#3D8CB2"/>
		<stop  offset="0.4553" style="stop-color:#5695B8"/>
		<stop  offset="0.579" style="stop-color:#73A2C1"/>
		<stop  offset="0.6975" style="stop-color:#94B4CE"/>
		<stop  offset="0.812" style="stop-color:#B9CCDD"/>
		<stop  offset="0.9213" style="stop-color:#E0E8F0"/>
		<stop  offset="1" style="stop-color:#FFFFFF"/>
	</radialGradient>
	<circle class="st7" cx="2137.7" cy="362.1" r="2.1"/>
</g>
<g>
	<path class="st8" d="M1035.3,365.2l13-23.6l4.3,2.4l-13,23.6L1035.3,365.2z M1045.5,340.1l2.8,1.5l-13,23.6l-2.8-1.5
		c-0.8-0.3-1.2-1.1-1.2-2h0.3l11.9-21.5l-0.1-0.3C1044,339.7,1044.9,339.7,1045.5,340.1z"/>
	<path class="st8" d="M1042.7,340.3c0.1-0.1,0.3-0.3,0.5-0.3l0.1,0.3l-11.9,21.5h-0.3c0-0.2,0-0.4,0-0.7l2-12.5L1042.7,340.3z
		 M1034.3,334c0.7,0.5,1,1.4,0.8,2.3l-2,12.5l-9.6,8.4c-0.7,0.5-1.5,0.8-2.4,0.5L1034.3,334z M1030.1,331.5l3.9,2.2
		c0.1,0.1,0.3,0.1,0.4,0.3l-13,23.6c-0.1-0.1-0.3-0.1-0.4-0.2l-3.9-2.2L1030.1,331.5z M1026.2,329.3l3.9,2.2l-13,23.6l-3.9-2.2
		c-0.1-0.1-0.3-0.1-0.4-0.3l13-23.6C1026,329.2,1026.1,329.3,1026.2,329.3z M1025.7,329.2l-13,23.6c-0.7-0.5-1-1.4-0.8-2.3l2-12.5
		l9.6-8.4C1024.1,329.1,1025,328.9,1025.7,329.2z M1003.7,346.4l11.9-21.5h0.3c0,0.2,0,0.4,0,0.7l-2,12.5l-9.6,8.4
		c-0.1,0.1-0.3,0.3-0.5,0.3L1003.7,346.4z"/>
	<path class="st8" d="M1011.8,321.5l2.8,1.5c0.8,0.3,1.2,1.1,1.2,2h-0.3l-11.9,21.5l0.1,0.3c-0.8,0.3-1.5,0.3-2.3-0.1l-2.8-1.5
		L1011.8,321.5z M994.4,342.8l13.2-23.7l4.3,2.4l-13.2,23.7L994.4,342.8z"/>
	<path class="st9" d="M1057.4,335.3c1.2,0.7,2.7,0.2,3.4-1s0.2-2.7-1-3.4l0,0c-1.2-0.7-2.7-0.2-3.4,1
		C1055.8,333.2,1056.2,334.7,1057.4,335.3L1057.4,335.3z"/>
	<path class="st10" d="M1038.5,326.4c1.2,0.7,2.7,0.2,3.4-1s0.2-2.7-1-3.4l0,0c-1.2-0.7-2.7-0.2-3.4,1
		C1036.9,324.1,1037.4,325.7,1038.5,326.4L1038.5,326.4z"/>
	<path class="st10" d="M992.8,355.9c1.2,0.7,2.7,0.2,3.4-1s0.2-2.7-1-3.4l0,0c-1.2-0.7-2.7-0.2-3.4,1
		C991.2,353.7,991.7,355.2,992.8,355.9L992.8,355.9z"/>
	<path class="st9" d="M1023.9,375.8c1.2,0.7,2.7,0.2,3.4-1s0.2-2.7-1-3.4c-1.2-0.7-2.7-0.2-3.4,1S1022.7,375.1,1023.9,375.8
		L1023.9,375.8z"/>
	<path class="st9" d="M1020.8,315.2c1.2,0.7,2.7,0.2,3.4-1c0.7-1.2,0.2-2.7-1-3.4l0,0c-1.2-0.7-2.7-0.2-3.4,1
		S1019.6,314.5,1020.8,315.2L1020.8,315.2z"/>
	<path class="st11" d="M1042.4,367.7l-1.2,2.2l-9.2-5.1c-1-0.5-1.7-1.6-2-2.8c-0.1-0.3,0-0.7,0-1l3.9-25c0.1-0.4-0.1-0.9-0.4-1.1
		c-0.1-0.1-0.1-0.1-0.2-0.1l-7.7-4.2c-0.1,0-0.1-0.1-0.2-0.1c-0.4-0.1-0.9-0.1-1.2,0.2l-19,16.6c-0.2,0.2-0.5,0.3-0.8,0.5
		c-1.1,0.5-2.4,0.5-3.4-0.1l-9.2-5.1l1.2-2.2l9.2,5.1c0.3,0.2,0.8,0.2,1.1,0c0.1-0.1,0.2-0.1,0.3-0.1l19-16.6c1-0.8,2.3-1.1,3.5-0.8
		c0.2,0.1,0.4,0.1,0.7,0.3l7.7,4.2c0.2,0.1,0.4,0.3,0.7,0.4c1,0.8,1.4,2.2,1.2,3.4l-3.9,25c0,0.1,0,0.2,0,0.3c0.1,0.3,0.3,0.8,0.5,1
		L1042.4,367.7z"/>
	<path class="st9" d="M1055.4,344.1l-1.2,2.2l-9.2-5.1c-0.3-0.2-0.8-0.2-1.1,0c-0.1,0.1-0.2,0.1-0.3,0.1l-19,16.6
		c-1,0.8-2.3,1.1-3.5,0.8c-0.2-0.1-0.4-0.1-0.7-0.3l-7.7-4.2c-0.2-0.1-0.4-0.3-0.7-0.4c-1-0.8-1.4-2.2-1.2-3.4l3.9-25
		c0-0.1,0-0.2,0-0.3c-0.1-0.3-0.3-0.8-0.5-1l-9.2-5.1l1.2-2.2l9.2,5.1c1,0.5,1.7,1.6,2,2.8c0.1,0.3,0,0.7,0,1l-3.9,25
		c-0.1,0.4,0.1,0.9,0.4,1.1c0.1,0.1,0.1,0.1,0.2,0.1l7.7,4.2c0.1,0,0.1,0.1,0.2,0.1c0.4,0.1,0.9,0.1,1.2-0.2l18.9-16.5
		c0.2-0.2,0.5-0.3,0.8-0.5c1.1-0.5,2.4-0.5,3.4,0.1L1055.4,344.1z"/>
	<path class="st12" d="M1003.3,345.6c0.1-0.1,0.2-0.1,0.3-0.1l3.9-3.5l6.3-11.4l0.8-5.2c0-0.1,0-0.2,0-0.3c0-0.2-0.1-0.4-0.2-0.5
		l-11.7,21.3C1002.9,345.7,1003.1,345.6,1003.3,345.6z"/>
	<path class="st13" d="M998.2,343.5l11.9-21.5l2.2,1.2l-11.9,21.5L998.2,343.5z M994,341.1l11.9-21.5l2.2,1.2l-11.9,21.5L994,341.1z
		 M1039.2,366l11.9-21.5l2.2,1.2l-12,21.5L1039.2,366z M1034.9,363.6l11.9-21.5l2.2,1.2l-11.9,21.5L1034.9,363.6z"/>
	<path class="st12" d="M1043.9,341.2c-0.1,0.1-0.2,0.1-0.3,0.1l-3.9,3.5l-6.3,11.4l-0.8,5.2c0,0.1,0,0.2,0,0.3
		c0,0.2,0.1,0.4,0.2,0.5l11.7-21.3C1044.3,341,1044.1,341,1043.9,341.2L1043.9,341.2z M1021.5,356.2c0.1,0,0.1,0.1,0.2,0.1
		c0.4,0.1,0.9,0.1,1.2-0.2l1.2-1.1l9.6-17.4l0.2-1.6c0.1-0.4-0.1-0.9-0.4-1.1c-0.1-0.1-0.1-0.1-0.2-0.1l-0.7-0.3l-11.9,21.5
		L1021.5,356.2z"/>
	<path class="st13" d="M1016.5,353.5l11.9-21.5l2.2,1.2l-11.9,21.5L1016.5,353.5z"/>
	<path class="st12" d="M1013.1,350.7c-0.1,0.4,0.1,0.9,0.4,1.1c0.1,0.1,0.1,0.1,0.2,0.1l0.7,0.3l11.9-21.5l-0.7-0.3
		c-0.1,0-0.1-0.1-0.2-0.1c-0.4-0.1-0.9-0.1-1.2,0.2l-1.2,1.1l-9.6,17.4L1013.1,350.7z"/>
	<path class="st14" d="M1017.9,362.4l5,10.3c0-0.1,0.1-0.2,0.1-0.3c0.3-0.7,1.1-1.2,2-1.2l-4.5-9.4l0.9-1.6l-2.2-1.2l-1.2,2.2
		C1017.7,361.6,1017.7,362.1,1017.9,362.4z M1056.4,332c0.1-0.1,0.2-0.3,0.3-0.5l-9.7,2.8c-0.3,0.1-0.5,0.3-0.8,0.5l-1.2,2.2
		l2.2,1.2l1-1.6l8-2.4C1056.1,333.6,1056.1,332.7,1056.4,332z M1029.3,324.3l-5-10.4c-0.1,0.1-0.1,0.2-0.1,0.3
		c-0.3,0.7-1,1.1-1.8,1.2l4.3,9.4l-0.9,1.6l2.2,1.2l1.2-2.2C1029.4,325.1,1029.4,324.6,1029.3,324.3z M995.2,351.5
		c0.3,0.2,0.7,0.5,0.9,0.9l2.6-4.6l-2.2-1.2l-2.6,4.6C994.3,351.3,994.7,351.3,995.2,351.5z M1038.5,326.4c-0.3-0.2-0.7-0.5-0.9-0.9
		l-3.2,5.8l2.2,1.2l3.2-5.8C1039.3,326.6,1038.9,326.6,1038.5,326.4z"/>
	<path d="M1042.4,367.7l-1.2,2.2l-9.2-5.1c-1.3-0.8-2.2-2.3-1.8-3.8l3.9-25c0.1-0.5-0.1-1-0.5-1.2l-7.7-4.2c-0.4-0.2-1-0.2-1.4,0.1
		l-19,16.6c-1.2,1-2.8,1.2-4.1,0.4l-9.2-5.1l1.2-2.2l9.2,5.1c0.4,0.2,1,0.2,1.4-0.1l19-16.6c1.2-1,2.8-1.2,4.1-0.4l7.7,4.2
		c1.3,0.8,2.2,2.3,1.8,3.8l-3.9,25c-0.1,0.5,0.1,1,0.5,1.2L1042.4,367.7z"/>
	<path d="M1055.4,344.1l-1.2,2.2l-9.2-5.1c-0.4-0.2-1-0.2-1.4,0.1l-19,16.6c-1.2,1-2.8,1.2-4.1,0.4l-7.7-4.2
		c-1.3-0.8-2.2-2.3-1.8-3.8l3.9-25c0.1-0.5-0.1-1-0.5-1.2l-9.2-5.1l1.2-2.2l9.2,5.1c1.3,0.8,2.2,2.3,1.8,3.8l-3.9,25
		c-0.1,0.5,0.1,1,0.5,1.2l7.7,4.2c0.4,0.2,1,0.2,1.4-0.1l19-16.6c1.2-1,2.8-1.2,4.1-0.4L1055.4,344.1z"/>
	<path d="M1002.6,345.9l11.9-21.5l2.2,1.2l-11.9,21.5L1002.6,345.9z M1000.6,339.1l10.1-18.3l2.2,1.2l-10.1,18.3L1000.6,339.1z
		 M997.7,344.5l1.7-3.3l2.2,1.2l-1.7,3.3L997.7,344.5z M993.4,342.2l13-23.6l2.2,1.2l-13,23.6L993.4,342.2z M1038.6,367.1l13-23.6
		l2.2,1.2l-13,23.6L1038.6,367.1z M1037.2,359.3l10.1-18.3l2.2,1.2l-10.1,18.3L1037.2,359.3z M1034.2,364.7l1.7-3.3l2.2,1.2
		l-1.7,3.3L1034.2,364.7z M1030.5,361.2l11.9-21.5l2.2,1.2l-11.9,21.5L1030.5,361.2z M1020.3,356.9l13-23.6l2.2,1.2l-13,23.6
		L1020.3,356.9z M1027.3,334.2l1.7-3.3l2.2,1.2l-1.7,3.3L1027.3,334.2z M1016,354.7l10.1-18.3l2.2,1.2l-10.1,18.3L1016,354.7z
		 M1011.6,352.2l13-23.6l2.2,1.2l-13,23.6L1011.6,352.2z M1024.7,370.9l-2.2,1l-4.6-9.6c-0.1-0.3-0.1-0.8,0-1.1l1.2-2.2l2.2,1.2
		l-0.9,1.6L1024.7,370.9z"/>
	<path d="M1028.3,375.4c-1,1.7-3.3,2.4-5,1.4s-2.4-3.3-1.4-5c1-1.7,3.3-2.4,5-1.4C1028.7,371.4,1029.3,373.7,1028.3,375.4z
		 M1024,373c-0.3,0.5-0.1,1.3,0.5,1.6c0.7,0.3,1.3,0.1,1.6-0.5c0.3-0.5,0.1-1.3-0.5-1.6l0,0C1025.1,372.3,1024.3,372.5,1024,373z
		 M1056.2,334.2l-7.8,2.3l-1,1.6l-2.2-1.2l1.2-2.2c0.1-0.3,0.4-0.5,0.8-0.5l8.4-2.4L1056.2,334.2z"/>
	<path d="M1061.8,335c-1,1.7-3.3,2.4-5,1.4c-1.7-1-2.4-3.3-1.4-5s3.3-2.4,5-1.4C1062.2,331,1062.8,333.2,1061.8,335z M1057.6,332.7
		c-0.3,0.5-0.1,1.3,0.5,1.6c0.5,0.3,1.3,0.1,1.6-0.5c0.3-0.5,0.1-1.3-0.5-1.6l0,0C1058.6,331.8,1057.8,332,1057.6,332.7z
		 M1029.2,325.5l-1.2,2.2l-2.2-1.2l0.9-1.6l-4.3-8.9l2.2-1l4.6,9.6C1029.4,324.6,1029.4,325.1,1029.2,325.5z"/>
	<path d="M1025.3,314.9c-1,1.7-3.3,2.4-5,1.4c-1.7-1-2.4-3.3-1.4-5s3.3-2.4,5-1.4C1025.6,310.8,1026.3,313,1025.3,314.9z
		 M1021,312.5c-0.3,0.5-0.1,1.3,0.5,1.6c0.7,0.3,1.3,0.1,1.6-0.5c0.3-0.5,0.1-1.3-0.5-1.6l0,0C1022,311.6,1021.3,311.8,1021,312.5z
		 M1034.4,331.2l3-5.3l2.2,1.2l-3,5.3L1034.4,331.2z"/>
	<path d="M1043,326c-1,1.7-3.3,2.4-5,1.4c-1.7-1-2.4-3.3-1.4-5c1-1.7,3.3-2.4,5-1.4C1043.2,321.9,1043.9,324.2,1043,326z
		 M1038.7,323.7c-0.3,0.5-0.1,1.3,0.5,1.6c0.5,0.3,1.3,0.1,1.6-0.5c0.3-0.5,0.1-1.3-0.5-1.6l0,0
		C1039.8,322.8,1038.9,323,1038.7,323.7z M993.6,352l3-5.3l2.2,1.2l-3,5.3L993.6,352z"/>
	<path d="M997.2,355.5c-1,1.7-3.3,2.4-5,1.4c-1.7-1-2.4-3.3-1.4-5s3.3-2.4,5-1.4l0,0C997.6,351.5,998.2,353.7,997.2,355.5z M993,353
		c-0.3,0.5-0.1,1.3,0.5,1.6c0.5,0.3,1.3,0.1,1.6-0.5c0.3-0.5,0.1-1.3-0.5-1.6C994,352.3,993.2,352.5,993,353z"/>
</g>
<g>
	<path class="st8" d="M1850.6,302.8l-5.7,14.9l-2.7-1.1l5.7-14.9L1850.6,302.8z M1846.7,318.3l-1.7-0.7l5.7-14.9l1.7,0.7
		c0.4,0.2,0.7,0.6,0.9,1l-0.2,0.1l-5.2,13.5l0.1,0.2C1847.6,318.4,1847.1,318.5,1846.7,318.3z"/>
	<path class="st8" d="M1848.2,317.9c-0.1,0.1-0.2,0.2-0.3,0.2l-0.1-0.2l5.2-13.5l0.2-0.1c0,0.2,0.1,0.2,0.1,0.4l-0.2,7.4
		L1848.2,317.9z M1853.7,321c-0.4-0.2-0.7-0.7-0.7-1.2l0.2-7.4l4.9-5.6c0.3-0.4,0.8-0.6,1.3-0.5L1853.7,321z M1856.4,322l-2.4-0.9
		c-0.1,0-0.2-0.1-0.2-0.2l5.7-14.9c0.1,0,0.2,0,0.2,0.1l2.4,0.9L1856.4,322z M1858.8,323l-2.4-0.9l5.7-14.9l2.4,0.9
		c0.1,0,0.2,0.1,0.2,0.2l-5.7,14.9C1859,323,1858.9,323,1858.8,323z M1859.1,323l5.7-14.9c0.4,0.2,0.7,0.7,0.7,1.2l-0.1,7.4
		l-4.9,5.6C1860.1,323,1859.6,323.1,1859.1,323z M1870.6,311.2l-5.2,13.5l-0.2,0.1c0-0.2-0.1-0.2-0.1-0.4l0.2-7.4l4.9-5.6
		C1870.3,311.3,1870.4,311.2,1870.6,311.2L1870.6,311.2z"/>
	<path class="st8" d="M1867.9,326.4l-1.7-0.7c-0.4-0.2-0.7-0.6-0.9-1l0.2-0.1l5.2-13.5l-0.1-0.2c0.4-0.2,0.9-0.3,1.3-0.2l1.7,0.7
		L1867.9,326.4z M1876.3,312.6l-5.7,14.9l-2.7-1.1l5.7-14.9L1876.3,312.6z"/>
	<path class="st10" d="M1851.9,325.8c-0.7-0.2-1.6,0.1-1.9,0.8c-0.3,0.7,0.1,1.6,0.8,1.9l0,0c0.7,0.2,1.6-0.1,1.9-0.8
		C1853,326.9,1852.6,326,1851.9,325.8L1851.9,325.8z"/>
	<path class="st10" d="M1876.2,304.8c-0.7-0.2-1.6,0.1-1.9,0.8c-0.2,0.7,0.1,1.6,0.8,1.9l0,0c0.7,0.2,1.6-0.1,1.9-0.8
		C1877.3,305.9,1876.9,305.1,1876.2,304.8L1876.2,304.8z"/>
	<path class="st9" d="M1856.4,295.7c-0.7-0.2-1.6,0.1-1.9,0.8c-0.2,0.7,0.1,1.6,0.8,1.9c0.7,0.2,1.6-0.1,1.9-0.8
		C1857.5,296.9,1857.1,295.9,1856.4,295.7L1856.4,295.7z"/>
	<path class="st11" d="M1846.2,301.9l0.5-1.3l5.8,2.2c0.7,0.2,1.2,0.8,1.3,1.5c0.1,0.2,0.1,0.4,0.1,0.6l-0.2,15
		c0,0.2,0.2,0.5,0.3,0.7c0,0,0.1,0.1,0.2,0.1l4.9,1.9h0.1c0.2,0.1,0.5-0.1,0.7-0.2l9.7-11.3c0.2-0.2,0.2-0.2,0.4-0.4
		c0.6-0.4,1.3-0.5,2-0.2l5.8,2.2l-0.5,1.3l-5.8-2.2c-0.2-0.1-0.5-0.1-0.7,0.1c-0.1,0-0.1,0.1-0.2,0.1l-9.7,11.3
		c-0.5,0.6-1.2,0.8-2,0.7c-0.2,0-0.2-0.1-0.4-0.1l-4.9-1.9c-0.2-0.1-0.2-0.1-0.4-0.2c-0.7-0.4-1-1.1-1-1.9l0.2-15c0-0.1,0-0.2,0-0.2
		c-0.1-0.2-0.2-0.4-0.4-0.5L1846.2,301.9z"/>
	<path class="st9" d="M1840.5,316.8l0.5-1.3l5.8,2.2c0.2,0.1,0.5,0.1,0.7-0.1c0.1,0,0.1-0.1,0.2-0.1l9.7-11.3c0.5-0.6,1.2-0.8,2-0.7
		c0.2,0,0.2,0.1,0.4,0.1l4.9,1.9c0.2,0.1,0.2,0.1,0.4,0.2c0.7,0.4,1,1.1,1,1.9l-0.2,15c0,0.1,0,0.2,0,0.2c0.1,0.2,0.2,0.4,0.4,0.5
		l5.8,2.2l-0.5,1.3l-5.8-2.2c-0.7-0.2-1.2-0.8-1.3-1.5c-0.1-0.2-0.1-0.4-0.1-0.6l0.2-15c0-0.2-0.2-0.5-0.3-0.7c0,0-0.1-0.1-0.2-0.1
		l-4.9-1.9h-0.1c-0.2-0.1-0.5,0.1-0.7,0.2l-9.7,11.3c-0.2,0.2-0.2,0.2-0.4,0.4c-0.6,0.4-1.3,0.5-2,0.2L1840.5,316.8z"/>
	<path class="st12" d="M1870.9,311.6c-0.1,0-0.1,0.1-0.2,0.1l-2.1,2.3l-2.7,7.2l-0.1,3.1c0,0.1,0,0.2,0,0.2c0,0.2,0.1,0.2,0.2,0.3
		l5.1-13.4C1871.1,311.6,1871,311.6,1870.9,311.6z"/>
	<path class="st13" d="M1874,312.5l-5.2,13.5l-1.3-0.5l5.2-13.5L1874,312.5z M1876.7,313.5l-5.2,13.5l-1.3-0.5l5.2-13.5
		L1876.7,313.5z M1848.3,302.6l-5.2,13.5l-1.3-0.5l5.2-13.5L1848.3,302.6z M1851,303.7l-5.2,13.5l-1.3-0.5l5.2-13.5L1851,303.7z"/>
	<path class="st12" d="M1847.6,317.6c0.1,0,0.1-0.1,0.2-0.1l2.1-2.3l2.7-7.2l0.1-3.1c0-0.1,0-0.2,0-0.2c0-0.2-0.1-0.2-0.2-0.3
		l-5.1,13.4C1847.3,317.7,1847.5,317.7,1847.6,317.6L1847.6,317.6z M1859.4,306.9L1859.4,306.9c-0.3-0.1-0.6,0.1-0.7,0.2l-0.7,0.7
		l-4.2,10.9v1c0,0.2,0.2,0.5,0.3,0.7c0,0,0.1,0.1,0.2,0.1l0.4,0.2l5.2-13.5L1859.4,306.9z"/>
	<path class="st13" d="M1862.5,308.1l-5.2,13.5l-1.3-0.5l5.2-13.5L1862.5,308.1z"/>
	<path class="st12" d="M1864.8,309.5c0-0.2-0.2-0.5-0.3-0.7c0,0-0.1-0.1-0.2-0.1l-0.4-0.2l-5.2,13.5l0.4,0.2h0.1
		c0.2,0.1,0.5-0.1,0.7-0.2l0.7-0.7l4.2-10.9L1864.8,309.5z"/>
	<path class="st14" d="M1861,303l-3.7-5.6c0,0.1,0,0.1-0.1,0.2c-0.2,0.4-0.6,0.7-1,0.9l3.4,5.1l-0.4,1l1.3,0.5l0.5-1.3
		C1861.2,303.5,1861.1,303.2,1861,303z"/>
	<path class="st14" d="M1875.2,307.5c-0.2-0.1-0.4-0.2-0.6-0.4l-1.1,2.9l1.3,0.5l1.1-2.9C1875.7,307.6,1875.4,307.6,1875.2,307.5z"
		/>
	<path class="st14" d="M1851.9,325.8c0.2,0.1,0.4,0.2,0.6,0.4l1.4-3.6l-1.3-0.5l-1.4,3.6C1851.4,325.7,1851.6,325.7,1851.9,325.8z"
		/>
	<path d="M1846.2,301.9l0.5-1.3l5.8,2.2c0.8,0.3,1.4,1.2,1.4,2.1l-0.2,15c0,0.3,0.2,0.6,0.5,0.7l4.9,1.9c0.2,0.1,0.6,0,0.8-0.2
		l9.7-11.3c0.6-0.7,1.6-0.9,2.4-0.6l5.8,2.2l-0.5,1.3l-5.8-2.2c-0.2-0.1-0.6,0-0.8,0.2l-9.7,11.3c-0.6,0.7-1.6,0.9-2.4,0.6l-4.9-1.9
		c-0.8-0.3-1.4-1.2-1.4-2.1l0.2-15c0-0.3-0.2-0.6-0.5-0.7L1846.2,301.9z"/>
	<rect x="1872.2" y="311.8" transform="matrix(0.3573 -0.934 0.934 0.3573 912.0316 1950.5105)" width="2.1" height="1.5"/>
	<rect x="1837.1" y="308.3" transform="matrix(0.3573 -0.934 0.934 0.3573 897.1462 1921.9338)" width="15.9" height="1.5"/>
	<rect x="1841" y="311" transform="matrix(0.3573 -0.934 0.934 0.3573 895.9864 1925.6534)" width="12.3" height="1.5"/>
	<rect x="1849.2" y="302.9" transform="matrix(0.3573 -0.934 0.934 0.3573 905.5415 1923.3088)" width="2.1" height="1.5"/>
	<rect x="1843.3" y="310.4" transform="matrix(0.3573 -0.934 0.934 0.3573 898.7135 1928.4025)" width="14.5" height="1.5"/>
	<rect x="1855.7" y="320.3" transform="matrix(0.3573 -0.934 0.934 0.3573 893.46 1940.5579)" width="2.1" height="1.5"/>
	<g>
		<path d="M1840.5,316.8l0.5-1.3l5.8,2.2c0.2,0.1,0.6,0,0.8-0.2l9.7-11.3c0.6-0.7,1.6-0.9,2.4-0.6l4.9,1.9c0.8,0.3,1.4,1.2,1.4,2.1
			l-0.2,15c0,0.3,0.2,0.6,0.5,0.7l5.8,2.2l-0.5,1.3l-5.8-2.2c-0.8-0.3-1.4-1.2-1.4-2.1l0.2-15c0-0.3-0.2-0.6-0.5-0.7l-4.9-1.9
			c-0.2-0.1-0.6,0-0.8,0.2l-9.7,11.3c-0.6,0.7-1.6,0.9-2.4,0.6L1840.5,316.8z"/>
		<rect x="1860.9" y="317.2" transform="matrix(0.3573 -0.934 0.934 0.3573 903.6702 1949.1338)" width="14.5" height="1.5"/>
		<rect x="1864" y="319.9" transform="matrix(0.3573 -0.934 0.934 0.3573 902.4595 1952.8196)" width="12.3" height="1.5"/>
		<rect x="1865.6" y="319.2" transform="matrix(0.3573 -0.934 0.934 0.3573 905.2775 1955.4982)" width="15.9" height="1.5"/>
		<rect x="1848.7" y="312.9" transform="matrix(0.3573 -0.934 0.934 0.3573 900.3807 1935.6459)" width="15.9" height="1.5"/>
		<rect x="1853.8" y="312.1" transform="matrix(0.3573 -0.934 0.934 0.3573 903.1785 1938.2671)" width="12.3" height="1.5"/>
		<rect x="1854.1" y="314.9" transform="matrix(0.3573 -0.934 0.934 0.3573 901.9677 1941.953)" width="15.9" height="1.5"/>
	</g>
	<path d="M1856.4,298.7l1.2-0.8l3.5,5.2c0.2,0.2,0.2,0.4,0.1,0.7l-0.5,1.3l-1.3-0.5l0.4-1L1856.4,298.7z"/>
	<circle cx="1855.9" cy="297" r="2.1"/>
	<path class="st15" d="M1856.6,297.3c0.2-0.4-0.1-0.8-0.4-0.9c-0.4-0.2-0.8,0.1-0.9,0.4c-0.2,0.4,0.1,0.8,0.4,0.9l0,0
		C1856,297.8,1856.4,297.7,1856.6,297.3z"/>
	<rect x="1850.7" y="323.3" transform="matrix(0.3573 -0.934 0.934 0.3573 887.9688 1938.5083)" width="3.6" height="1.5"/>
	<path d="M1849.3,326.3c0.4-1.2,1.7-1.7,2.8-1.2c1.2,0.4,1.7,1.7,1.2,2.8c-0.4,1.2-1.7,1.7-2.8,1.2
		C1849.5,328.7,1848.9,327.5,1849.3,326.3z M1852,327.4c0.2-0.4-0.1-0.8-0.4-0.9c-0.3-0.1-0.8,0.1-0.9,0.4c-0.2,0.4,0.1,0.8,0.4,0.9
		l0,0C1851.4,327.9,1851.9,327.7,1852,327.4z M1876.1,307.1l-1.3,3.4l-1.3-0.5l1.3-3.4L1876.1,307.1z"/>
	<path d="M1873.7,305.4c0.4-1.2,1.7-1.7,2.8-1.2s1.7,1.7,1.2,2.8c-0.4,1.2-1.7,1.7-2.8,1.2l0,0
		C1873.8,307.8,1873.2,306.5,1873.7,305.4z M1876.3,306.4c0.2-0.4-0.1-0.8-0.4-0.9c-0.4-0.2-0.8,0.1-0.9,0.4s0.1,0.8,0.4,0.9
		S1876.2,306.8,1876.3,306.4z"/>
</g>
<g>
	<path class="st8" d="M86.7,327l20.2,3.4l-0.6,3.6L86,330.6L86.7,327z M107.2,328l-0.4,2.4L86.7,327l0.4-2.4
		c0.1-0.6,0.5-1.1,1.1-1.3l0.1,0.2l18.5,3l0.2-0.2C107.1,326.7,107.3,327.4,107.2,328z"/>
	<path class="st8" d="M106.2,326c0.2,0.1,0.2,0.2,0.4,0.2l-0.2,0.2l-18.5-3l-0.1-0.2c0.2-0.1,0.2-0.1,0.5-0.2l9.4-1.7L106.2,326z
		 M108.8,318.4c-0.2,0.6-0.7,1.1-1.5,1.1l-9.4,1.7l-8.4-4.7c-0.6-0.2-1-1-1-1.5L108.8,318.4z M109.4,314.7l-0.6,3.3
		c0,0.1-0.1,0.2-0.1,0.4L88.5,315c0-0.1,0-0.2,0-0.4l0.6-3.3L109.4,314.7z M110,311.4l-0.6,3.3l-20.2-3.4l0.6-3.3
		c0-0.1,0.1-0.2,0.1-0.4l20.2,3.4C110,311.1,110,311.3,110,311.4z M110,311.1l-20.2-3.5c0.2-0.6,0.7-1.1,1.5-1.1l9.4-1.7l8.4,4.7
		C109.6,309.7,110,310.4,110,311.1z M92.1,299.5l18.5,3l0.1,0.2c-0.2,0.1-0.2,0.1-0.5,0.2l-9.4,1.7l-8.4-4.7
		C92.2,299.8,92.1,299.8,92.1,299.5L92.1,299.5z"/>
	<path class="st8" d="M112,299.1l-0.4,2.4c-0.1,0.6-0.5,1.1-1.1,1.3l-0.1-0.2l-18.5-3l-0.2,0.2c-0.5-0.4-0.6-1.1-0.6-1.6l0.4-2.4
		L112,299.1z M92.4,292l20.2,3.4l-0.6,3.6l-20-3.3L92.4,292z"/>
	<path class="st10" d="M115.2,319.5c-0.2,1.1,0.5,1.9,1.5,2.2c1,0.2,1.9-0.5,2.2-1.5l0,0c0.2-1.1-0.5-1.9-1.5-2.2
		C116.3,317.8,115.3,318.5,115.2,319.5L115.2,319.5z"/>
	<path class="st10" d="M82.6,294.2c-0.2,1.1,0.5,1.9,1.5,2.2c1.1,0.2,1.9-0.5,2.2-1.5l0,0c0.2-1.1-0.5-1.9-1.5-2.2
		C83.7,292.5,82.8,293.2,82.6,294.2L82.6,294.2z"/>
	<path class="st9" d="M76.2,321.4c-0.2,1.1,0.5,1.9,1.5,2.2c1.1,0.2,1.9-0.5,2.2-1.5c0.2-1.1-0.5-1.9-1.5-2.2
		C77.3,319.7,76.3,320.4,76.2,321.4L76.2,321.4z"/>
	<path class="st9" d="M118.8,304c-0.2,1.1,0.5,1.9,1.5,2.2c1,0.2,1.9-0.5,2.2-1.5l0,0c0.2-1.1-0.5-1.9-1.5-2.2
		C119.9,302.3,118.8,302.9,118.8,304L118.8,304z"/>
	<path class="st11" d="M86.7,332.6l-1.8-0.2l1.3-7.9c0.2-0.9,0.7-1.6,1.5-2.1c0.2-0.1,0.5-0.2,0.7-0.2l18.8-3.5
		c0.2-0.1,0.6-0.2,0.6-0.6c0-0.1,0-0.1,0.1-0.2l1.1-6.7c0-0.1,0-0.1,0-0.2c0-0.4-0.2-0.6-0.5-0.7l-16.6-9.4
		c-0.2-0.1-0.4-0.2-0.6-0.5c-0.6-0.6-1-1.5-0.7-2.4l1.3-7.9l1.8,0.2l-1.3,7.9c0,0.2,0.1,0.6,0.2,0.9c0.1,0.1,0.1,0.1,0.2,0.2
		l16.6,9.5c0.9,0.5,1.5,1.3,1.5,2.4c0,0.2,0,0.4,0,0.6l-1.1,6.7c0,0.2-0.1,0.4-0.2,0.6c-0.4,0.9-1.1,1.5-2.1,1.7l-18.8,3.5
		c-0.1,0-0.2,0-0.2,0.1c-0.2,0.1-0.5,0.4-0.5,0.6L86.7,332.6z"/>
	<path class="st9" d="M106.8,336l-1.8-0.2l1.3-7.9c0-0.2-0.1-0.6-0.2-0.9c-0.1-0.1-0.1-0.1-0.2-0.2l-16.6-9.5
		c-0.9-0.5-1.5-1.3-1.5-2.4c0-0.2,0-0.4,0-0.6l1.1-6.7c0-0.2,0.1-0.4,0.2-0.6c0.4-0.9,1.1-1.5,2.1-1.7l18.8-3.5c0.1,0,0.2,0,0.2-0.1
		c0.2-0.1,0.5-0.4,0.5-0.6l1.3-7.9l1.8,0.2l-1.3,8.1c-0.2,0.9-0.7,1.6-1.5,2.1c-0.2,0.1-0.5,0.2-0.7,0.2l-18.8,3.5
		c-0.2,0.1-0.6,0.2-0.6,0.6c0,0.1,0,0.1-0.1,0.2l-1.1,6.7c0,0.1,0,0.1,0,0.2c0,0.4,0.2,0.6,0.5,0.7l16.6,9.4
		c0.2,0.1,0.4,0.2,0.6,0.5c0.6,0.6,1,1.5,0.7,2.4L106.8,336z"/>
	<path class="st12" d="M92.6,299.1c0.1,0.1,0.1,0.1,0.2,0.2l3.5,1.9l9.7,1.6l3.9-0.7c0.1,0,0.2,0,0.2-0.1c0.2-0.1,0.2-0.2,0.4-0.2
		l-18.2-3C92.4,298.8,92.5,298.9,92.6,299.1z"/>
	<path class="st13" d="M92.8,295.1l18.5,3l-0.2,1.8l-18.5-3L92.8,295.1z M93.6,291.3l18.5,3l-0.2,1.8l-18.5-3L93.6,291.3z
		 M87.1,329.8l18.5,3l-0.2,1.8l-18.5-3L87.1,329.8z M87.6,326.3l18.5,3l-0.2,1.8l-18.5-3L87.6,326.3z"/>
	<path class="st12" d="M106,327c-0.1-0.1-0.1-0.1-0.2-0.2l-3.5-1.9l-9.7-1.5l-3.9,0.7c-0.1,0-0.2,0-0.2,0.1
		c-0.2,0.1-0.2,0.2-0.4,0.2l18.2,3C106.2,327.2,106.2,327.1,106,327L106,327z M89.6,314.8c0,0.1,0,0.1,0,0.2c0,0.4,0.2,0.6,0.5,0.7
		l1.1,0.6l14.8,2.4l1.2-0.2c0.2-0.1,0.6-0.2,0.6-0.6c0-0.1,0-0.1,0.1-0.2l0.1-0.6l-18.5-3L89.6,314.8z"/>
	<path class="st13" d="M90.3,310.6l18.5,3l-0.2,1.8l-18.5-3L90.3,310.6z"/>
	<path class="st12" d="M91.5,307.4c-0.2,0.1-0.6,0.2-0.6,0.6c0,0.1,0,0.1-0.1,0.2l-0.1,0.5l18.5,3l0.1-0.6c0-0.1,0-0.1,0-0.2
		c0-0.4-0.2-0.6-0.5-0.7l-1.1-0.6l-14.8-2.4L91.5,307.4z"/>
	<path class="st14" d="M84.2,313.6l-6.2,6.2c0.1,0,0.2,0,0.2,0c0.6,0.1,1.1,0.5,1.3,1.1l5.5-5.5l1.3,0.2l0.2-1.8l-1.8-0.2
		C84.8,313.4,84.5,313.5,84.2,313.6z"/>
	<path class="st14" d="M114.3,312.4l6.3-6.2c-0.1,0-0.2,0-0.2,0c-0.6-0.1-1.1-0.5-1.3-1l-5.6,5.5l-1.3-0.2l-0.2,1.8l1.8,0.2
		C113.9,312.7,114.1,312.5,114.3,312.4z"/>
	<path class="st14" d="M86.3,294.8c-0.1,0.2-0.2,0.6-0.4,0.9l3.9,0.6l0.2-1.8l-3.9-0.6C86.3,294.2,86.3,294.6,86.3,294.8z"/>
	<path class="st14" d="M115.2,319.5c0.1-0.2,0.2-0.6,0.4-0.9l-4.9-0.9l-0.2,1.8l4.9,0.9C115.2,320.2,115.2,319.7,115.2,319.5z"/>
	<path d="M86.7,332.6l-1.8-0.2l1.3-7.9c0.2-1.1,1.1-2.1,2.3-2.3l18.8-3.5c0.4-0.1,0.6-0.4,0.7-0.7l1.1-6.7c0.1-0.4-0.1-0.7-0.5-1
		L92,300.8c-1.1-0.6-1.6-1.7-1.5-2.8l1.3-7.9l1.8,0.2l-1.3,7.9c-0.1,0.4,0.1,0.7,0.5,1l16.6,9.5c1.1,0.6,1.6,1.7,1.5,2.8l-1.1,6.7
		c-0.2,1.1-1.1,2.1-2.3,2.3L88.7,324c-0.4,0.1-0.6,0.4-0.7,0.7L86.7,332.6z"/>
	<path d="M106.8,336l-1.8-0.2l1.3-7.9c0.1-0.4-0.1-0.7-0.5-1l-16.6-9.5c-1.1-0.6-1.6-1.7-1.5-2.8l1.1-6.7c0.2-1.1,1.1-2.1,2.3-2.3
		l18.8-3.5c0.4-0.1,0.6-0.4,0.7-0.7l1.3-7.9l1.8,0.2l-1.3,7.9c-0.2,1.1-1.1,2.1-2.3,2.3l-18.8,3.5c-0.4,0.1-0.6,0.4-0.7,0.7
		l-1.1,6.7c-0.1,0.4,0.1,0.7,0.5,1l16.6,9.5c1.1,0.6,1.6,1.7,1.5,2.8L106.8,336z"/>
	<path d="M92.4,298.6l18.5,3l-0.2,1.8l-18.7-2.9L92.4,298.6z M96.6,295.5l15.5,2.7l-0.2,1.8l-15.5-2.7L96.6,295.5z M91.9,294.8
		l2.8,0.5l-0.2,1.8l-2.8-0.5L91.9,294.8z M92.6,291.2l20.2,3.4l-0.2,1.8L92.4,293L92.6,291.2z M86.2,329.7l20.2,3.4l-0.2,1.8
		l-20.3-3.4L86.2,329.7z M91.4,326.7l15.5,2.7l-0.2,1.8l-15.5-2.7L91.4,326.7z M86.8,326l2.8,0.5l-0.2,1.8l-2.8-0.5L86.8,326z
		 M88.4,322.5l18.5,3l-0.2,1.8l-18.5-3L88.4,322.5z M88.7,314.1l20.2,3.4l-0.2,1.8l-20.2-3.4L88.7,314.1z M106.8,313.3l2.8,0.5
		l-0.2,1.8l-2.8-0.5L106.8,313.3z M89.3,310.5l15.5,2.7l-0.2,1.8l-15.5-2.7L89.3,310.5z M89.9,306.7l20.2,3.4l-0.2,1.8l-20.2-3.4
		L89.9,306.7z M79.9,320.7l-1.3-1.3l5.7-5.7c0.2-0.2,0.5-0.2,0.9-0.2l1.8,0.2l-0.2,1.8l-1.3-0.2L79.9,320.7z"/>
	<circle cx="78" cy="321.8" r="2.8"/>
	<path class="st16" d="M78.2,320.8c-0.5-0.1-1,0.2-1.1,0.7c-0.1,0.5,0.2,1,0.7,1.1c0.5,0.1,1-0.2,1.1-0.7l0,0
		C79,321.4,78.6,320.9,78.2,320.8z"/>
	<path d="M113.6,312.5l-1.8-0.2l0.2-1.8l1.3,0.2l5.3-5.3l1.3,1.3l-5.7,5.7C114.1,312.5,113.9,312.7,113.6,312.5z"/>
	<circle cx="120.5" cy="304.3" r="2.8"/>
	<path class="st16" d="M120.8,303.4c-0.5-0.1-1,0.2-1.1,0.7c-0.1,0.5,0.2,1,0.7,1.1s1-0.2,1.1-0.7l0,0
		C121.6,304,121.3,303.6,120.8,303.4z"/>
	<rect x="112" y="316.7" transform="matrix(0.1652 -0.9863 0.9863 0.1652 -220.3492 377.7507)" width="1.9" height="4.6"/>
	<path d="M116.7,322.5c-1.5-0.2-2.6-1.7-2.3-3.3c0.2-1.5,1.7-2.6,3.3-2.3c1.6,0.2,2.6,1.7,2.3,3.3
		C119.6,321.8,118.1,322.7,116.7,322.5z M117.1,318.9c-0.5-0.1-1,0.2-1.1,0.7c-0.1,0.5,0.2,1,0.7,1.1c0.5,0.1,1-0.2,1.1-0.7l0,0
		C118,319.3,117.7,318.9,117.1,318.9z M85.6,293.7l4.5,0.7l-0.2,1.8l-4.5-0.7L85.6,293.7z"/>
	<path d="M84.1,297.2c-1.5-0.2-2.6-1.7-2.3-3.3c0.2-1.5,1.7-2.6,3.3-2.3c1.5,0.2,2.6,1.7,2.3,3.3l0,0
		C87,296.5,85.6,297.5,84.1,297.2z"/>
	<circle class="st17" cx="84.5" cy="294.6" r="1"/>
</g>
<g>
	<path class="st8" d="M626.7,279.5l15.7,2.6L642,285l-15.7-2.6L626.7,279.5z M642.8,280.2l-0.3,1.9l-15.7-2.6l0.3-1.9
		c0.1-0.5,0.4-0.9,0.8-1.1l0.1,0.2l14.3,2.4l0.1-0.1C642.7,279.3,642.9,279.8,642.8,280.2z"/>
	<path class="st8" d="M642.1,278.7c0.1,0.1,0.2,0.1,0.3,0.2l-0.1,0.1l-14.3-2.4l-0.1-0.2c0.1-0.1,0.2-0.1,0.4-0.1l7.3-1.4
		L642.1,278.7z M644,272.8c-0.2,0.5-0.6,0.8-1.1,0.9l-7.3,1.4l-6.5-3.7c-0.4-0.2-0.7-0.7-0.7-1.2L644,272.8z M644.5,269.9l-0.4,2.6
		c0,0.1,0,0.2-0.1,0.3l-15.7-2.6c0-0.1,0-0.2,0-0.3l0.4-2.6L644.5,269.9z M644.9,267.4l-0.4,2.6l-15.7-2.6l0.4-2.6
		c0-0.1,0-0.2,0.1-0.3l15.7,2.6C645,267.2,645,267.3,644.9,267.4z M645,267.1l-15.7-2.6c0.2-0.5,0.6-0.8,1.1-0.9l7.3-1.4l6.5,3.7
		C644.7,266.1,644.9,266.6,645,267.1z M631.1,258.1l14.3,2.4l0.1,0.2c-0.1,0.1-0.2,0.1-0.4,0.1l-7.3,1.4l-6.5-3.7
		c-0.1-0.1-0.2-0.1-0.3-0.2L631.1,258.1z"/>
	<path class="st8" d="M646.5,257.8l-0.3,1.9c-0.1,0.5-0.4,0.9-0.8,1.1l-0.1-0.2l-14.3-2.4l-0.1,0.1c-0.3-0.3-0.5-0.8-0.4-1.3
		l0.3-1.9L646.5,257.8z M631.3,252.3l15.7,2.6l-0.5,2.9l-15.7-2.6L631.3,252.3z"/>
	<path class="st10" d="M649,273.6c-0.1,0.8,0.4,1.5,1.2,1.7c0.8,0.1,1.5-0.4,1.7-1.2l0,0c0.1-0.8-0.4-1.5-1.2-1.7
		C649.9,272.3,649.2,272.8,649,273.6L649,273.6z"/>
	<path class="st10" d="M623.7,254c-0.1,0.8,0.4,1.5,1.2,1.7c0.8,0.1,1.5-0.4,1.7-1.2l0,0c0.1-0.8-0.4-1.5-1.2-1.7
		C624.6,252.6,623.8,253.2,623.7,254L623.7,254z"/>
	<path class="st9" d="M618.6,275.2c-0.1,0.8,0.4,1.5,1.2,1.7c0.8,0.1,1.5-0.4,1.7-1.2c0.1-0.8-0.4-1.5-1.2-1.7
		S618.8,274.4,618.6,275.2L618.6,275.2z"/>
	<path class="st9" d="M651.8,261.6c-0.1,0.8,0.4,1.5,1.2,1.7c0.8,0.1,1.5-0.4,1.7-1.2l0,0c0.1-0.8-0.4-1.5-1.2-1.7
		C652.7,260.3,651.9,260.8,651.8,261.6L651.8,261.6z"/>
	<path class="st11" d="M626.7,283.9l-1.4-0.2l1-6.1c0.1-0.7,0.6-1.3,1.2-1.6c0.2-0.1,0.4-0.1,0.6-0.2l14.7-2.7
		c0.2,0,0.5-0.2,0.5-0.5v-0.1l0.9-5.1v-0.1c0-0.3-0.1-0.5-0.4-0.6l-13-7.4c-0.2-0.1-0.3-0.2-0.5-0.4c-0.5-0.5-0.7-1.2-0.6-1.9l1-6.1
		l1.4,0.2l-1,6.1c0,0.2,0,0.5,0.2,0.6l0.1,0.1l13,7.4c0.7,0.4,1.1,1.1,1.1,1.8c0,0.1,0,0.3,0,0.4l-0.9,5.1c0,0.2-0.1,0.3-0.1,0.4
		c-0.3,0.7-0.9,1.2-1.6,1.3l-14.7,2.7c-0.1,0-0.1,0-0.2,0.1c-0.2,0.1-0.4,0.3-0.4,0.5L626.7,283.9z"/>
	<path class="st9" d="M642.5,286.5l-1.4-0.2l1-6.1c0-0.2,0-0.5-0.2-0.6l-0.1-0.1l-13-7.4c-0.7-0.4-1.1-1.1-1.1-1.8
		c0-0.1,0-0.3,0-0.4l0.9-5.1c0-0.2,0.1-0.3,0.1-0.4c0.3-0.7,0.9-1.2,1.6-1.3l14.7-2.7c0.1,0,0.1,0,0.2-0.1c0.2-0.1,0.4-0.3,0.4-0.5
		l1-6.1l1.4,0.2l-1,6.1c-0.1,0.7-0.6,1.3-1.2,1.6c-0.2,0.1-0.4,0.1-0.6,0.2l-14.7,2.7c-0.2,0-0.5,0.2-0.5,0.5v0.1l-0.9,5.1v0.1
		c0,0.3,0.1,0.5,0.4,0.6l13,7.3c0.2,0.1,0.3,0.2,0.5,0.4c0.5,0.5,0.7,1.2,0.6,1.9L642.5,286.5z"/>
	<path class="st12" d="M631.4,257.8l0.1,0.1l2.7,1.5l7.6,1.3l3-0.6c0.1,0,0.1,0,0.2-0.1c0.1-0.1,0.2-0.1,0.3-0.3l-14.2-2.4
		C631.3,257.6,631.3,257.7,631.4,257.8z"/>
	<path class="st13" d="M631.7,254.6L646,257l-0.2,1.4l-14.3-2.4L631.7,254.6z M632.1,251.7l14.3,2.4l-0.2,1.4l-14.3-2.4L632.1,251.7
		z M627.1,281.7l14.3,2.4l-0.2,1.4l-14.3-2.4L627.1,281.7z M627.6,278.9l14.3,2.4l-0.2,1.4l-14.3-2.4L627.6,278.9z"/>
	<path class="st12" d="M641.9,279.5l-0.1-0.1l-2.7-1.5l-7.6-1.3l-3,0.6c-0.1,0-0.1,0-0.2,0.1c-0.1,0.1-0.2,0.1-0.3,0.3l14.2,2.4
		C642,279.7,642,279.6,641.9,279.5L641.9,279.5z M629.1,270v0.1c0,0.3,0.1,0.5,0.4,0.6l0.8,0.5l11.5,1.9l1-0.2
		c0.2,0,0.5-0.2,0.5-0.5v-0.1l0.1-0.4l-14.3-2.4V270z"/>
	<path class="st13" d="M629.6,266.7l14.3,2.4l-0.2,1.4l-14.3-2.4L629.6,266.7z"/>
	<path class="st12" d="M630.5,264.3c-0.2,0-0.5,0.2-0.5,0.5v0.1l-0.1,0.4l14.3,2.4l0.1-0.4v-0.1c0-0.3-0.1-0.5-0.4-0.6L643,266
		l-11.5-1.9L630.5,264.3z"/>
	<path class="st14" d="M624.9,269.2l-4.8,4.8c0.1,0,0.1,0,0.2,0c0.5,0.1,0.9,0.4,1.1,0.8l4.3-4.3l1.1,0.2l0.2-1.4l-1.4-0.2
		C625.3,268.9,625.1,269,624.9,269.2z"/>
	<path class="st14" d="M648.4,268.1l4.8-4.8c-0.1,0-0.2,0-0.2,0c-0.4-0.1-0.8-0.4-1-0.8l-4.3,4.3l-1.1-0.2l-0.2,1.4l1.4,0.2
		C648,268.3,648.2,268.2,648.4,268.1z"/>
	<path class="st14" d="M626.5,254.4c0,0.3-0.2,0.5-0.3,0.7l3.1,0.5l0.2-1.4l-3.1-0.5C626.5,253.9,626.6,254.2,626.5,254.4z"/>
	<path class="st14" d="M649,273.6c0-0.3,0.2-0.5,0.3-0.7l-3.8-0.6l-0.2,1.4l3.8,0.6C649,274.1,649,273.9,649,273.6z"/>
	<path d="M626.7,283.9l-1.4-0.2l1-6.1c0.2-0.9,0.9-1.6,1.7-1.8l14.7-2.7c0.3-0.1,0.5-0.3,0.6-0.6l0.9-5.1c0.1-0.3-0.1-0.6-0.4-0.8
		l-13-7.4c-0.8-0.5-1.2-1.3-1.1-2.3l1-6.1l1.4,0.2l-1,6.1c-0.1,0.3,0.1,0.6,0.4,0.8l13,7.4c0.8,0.5,1.2,1.3,1.1,2.3l-0.9,5.1
		c-0.2,0.9-0.9,1.6-1.7,1.8l-14.7,2.7c-0.3,0.1-0.5,0.3-0.6,0.6L626.7,283.9z"/>
	<path d="M642.5,286.5l-1.4-0.2l1-6.1c0.1-0.3-0.1-0.6-0.4-0.8l-13-7.4c-0.8-0.5-1.2-1.3-1.1-2.3l0.9-5.1c0.2-0.9,0.9-1.6,1.7-1.8
		l14.7-2.7c0.3-0.1,0.5-0.3,0.6-0.6l1-6.1l1.4,0.2l-1,6.1c-0.2,0.9-0.9,1.6-1.7,1.8l-14.7,2.7c-0.3,0.1-0.5,0.3-0.6,0.6l-0.9,5.1
		c-0.1,0.3,0.1,0.6,0.4,0.8l13,7.4c0.8,0.5,1.2,1.3,1.1,2.3L642.5,286.5z"/>
	<path d="M631.2,257.4l14.3,2.4l-0.2,1.4l-14.3-2.4L631.2,257.4z M634.5,255l12.2,2l-0.2,1.4l-12.2-2L634.5,255z M630.9,254.4
		l2.1,0.4l-0.2,1.4l-2.1-0.4L630.9,254.4z M631.4,251.6l15.7,2.6l-0.2,1.4l-15.7-2.6L631.4,251.6z M626.4,281.6l15.7,2.6l-0.2,1.4
		l-15.7-2.6L626.4,281.6z M630.4,279.3l12.2,2l-0.2,1.4l-12.2-2L630.4,279.3z M626.9,278.7l2.1,0.4l-0.2,1.4l-2.1-0.4L626.9,278.7z
		 M628.1,276l14.3,2.4l-0.2,1.4l-14.3-2.4L628.1,276z M628.4,269.4l15.7,2.6l-0.2,1.4l-15.7-2.6L628.4,269.4z M642.5,268.9l2.1,0.4
		l-0.2,1.4l-2.1-0.4L642.5,268.9z M628.9,266.6l12.2,2l-0.2,1.4l-12.2-2L628.9,266.6z M629.4,263.7l15.7,2.6l-0.2,1.4l-15.7-2.6
		L629.4,263.7z M621.5,274.6l-1-1l4.4-4.4c0.2-0.2,0.4-0.2,0.6-0.2l1.4,0.2l-0.2,1.4l-1.1-0.2L621.5,274.6z"/>
	<circle cx="620.1" cy="275.4" r="2.2"/>
	<path class="st16" d="M620.2,274.7c-0.4-0.1-0.8,0.2-0.8,0.6c-0.1,0.4,0.2,0.8,0.6,0.8s0.8-0.2,0.8-0.6l0,0
		C620.9,275.1,620.6,274.8,620.2,274.7z"/>
	<path d="M647.7,268.3l-1.4-0.2l0.2-1.4l1.1,0.2l4.1-4.1l1,1l-4.4,4.4C648.2,268.2,648,268.3,647.7,268.3z"/>
	<circle cx="653.2" cy="261.8" r="2.2"/>
	<path class="st16" d="M653.3,261.1c-0.4-0.1-0.8,0.2-0.8,0.6c-0.1,0.4,0.2,0.8,0.6,0.8c0.4,0.1,0.8-0.2,0.8-0.6l0,0
		C654,261.6,653.7,261.2,653.3,261.1z"/>
	<rect x="646.6" y="271.5" transform="matrix(0.1652 -0.9863 0.9863 0.1652 270.795 866.6085)" width="1.4" height="3.6"/>
	<path d="M650.1,276c-1.2-0.2-2-1.3-1.8-2.5s1.3-2,2.5-1.8s2,1.3,1.8,2.5C652.4,275.4,651.3,276.2,650.1,276z M650.6,273.2
		c-0.4-0.1-0.8,0.2-0.8,0.6c-0.1,0.4,0.2,0.8,0.6,0.8c0.4,0.1,0.8-0.2,0.8-0.6l0,0C651.2,273.6,651,273.2,650.6,273.2z M625.9,253.6
		l3.6,0.6l-0.2,1.4l-3.6-0.6L625.9,253.6z"/>
	<path d="M624.7,256.3c-1.2-0.2-2-1.3-1.8-2.5s1.3-2,2.5-1.8s2,1.3,1.8,2.5l0,0C627,255.7,625.9,256.5,624.7,256.3z"/>
	<circle class="st17" cx="625.1" cy="254.2" r="0.7"/>
</g>
<path d="M1358.8,846.5L1358.8,846.5C1358.9,847.1,1358.8,846.5,1358.8,846.5z"/>
<ellipse class="st18" cx="818.7" cy="244.5" rx="5.4" ry="5.3"/>
<ellipse class="st18" cx="717.3" cy="182.7" rx="25.4" ry="24.9"/>
<ellipse class="st18" cx="1592" cy="193.8" rx="11.2" ry="11"/>
<ellipse class="st18" cx="1702.8" cy="232.5" rx="8.1" ry="7.9"/>
<g>
	<g>
		<path class="st19" d="M718.7,182.4c-0.9,4.6-0.5,11.3,2.6,14.4c3.9,3.8,4.8,4.8,5,5l-2,2c0,0-1.1-1.1-5-5
			c-5.1-5-4.3-12.1-3.6-17.3c0.9-6.4,0.8-13-2.4-16.2c-5-4.9-5-4.9-5-4.9l2-2c0.3,0.3,1.5,1.4,5,4.9
			C720.2,168.2,719.6,177.3,718.7,182.4z"/>
		<polygon class="st19" points="700.2,172.2 708.3,164.3 710.3,166.3 702.2,174.2 		"/>
		<path class="st19" d="M704.4,176l7.7-7.6c0,0,0.3,0.6,0.6,1.4c0.2,0.7,0.3,1.7,0.3,1.7l-5.5,5.4c0,0-0.9-0.1-1.7-0.3
			C705,176.4,704.4,176,704.4,176z"/>
	</g>
	<g>
		<g>
			<path class="st20" d="M711.6,182.7c0,0-3.9,0.2-7.8-0.9c-1.2-0.3-2.9-1-4.6-2.8c-3.1-3-2.8-2.7-5-4.9l2-2c1.5,1.5,2.9,2.9,5,4.9
				c1.4,1.4,2.5,1.6,3.7,2c3.3,1,7,0.7,7,0.7L711.6,182.7z"/>
			<polygon class="st20" points="734.3,189.9 726.3,197.8 724.3,195.8 732.3,188 			"/>
			<path class="st20" d="M730.1,186.1l-7.7,7.6c0,0-0.4-0.6-0.6-1.4c-0.2-0.8-0.3-1.7-0.3-1.7l5.5-5.4c0,0,1,0.1,1.7,0.3
				C729.5,185.8,730.1,186.1,730.1,186.1z"/>
			<path class="st20" d="M722.3,182l0.3-3c0,0,4-0.2,7.9,1c3,0.9,5.8,4,9.8,7.9l-2,2l0,0c-3.2-3.1-6.4-6.4-8.9-7.1
				C725.8,181.8,722.3,182,722.3,182z"/>
		</g>
	</g>
</g>
<g>
	<ellipse class="st18" cx="797.6" cy="203.6" rx="10" ry="9.9"/>
	<g>
		<g>
			<path class="st21" d="M797.4,203.6c-1.4,1-3.1,2.7-3.1,4.3c0,1.9,0,2.4,0,2.5h-1c0,0,0-0.6,0-2.5c0-2.6,2-4.2,3.6-5.3
				c1.9-1.4,3.6-3.1,3.6-4.7c0-2.5,0-2.5,0-2.5h1c0,0.2,0,0.7,0,2.5C801.5,200.3,799,202.5,797.4,203.6z"/>
			<rect x="795.4" y="196.3" class="st21" width="4.1" height="1"/>
			<path class="st21" d="M795.4,198.3h3.9c0,0-0.1,0.2-0.2,0.5c-0.1,0.2-0.4,0.5-0.4,0.5H796c0,0-0.2-0.3-0.4-0.5
				C795.5,198.6,795.4,198.3,795.4,198.3z"/>
		</g>
		<g>
			<g>
				<path class="st21" d="M795.5,201.9c0,0-1.1-0.9-1.8-2.2c-0.2-0.4-0.5-1-0.5-1.9c0-1.5,0-1.4,0-2.5h1c0,0.8,0,1.5,0,2.5
					c0,0.7,0.2,1,0.4,1.4c0.6,1.1,1.6,1.9,1.6,1.9L795.5,201.9z"/>
				<rect x="795.4" y="208.4" class="st21" width="4.1" height="1"/>
				<path class="st21" d="M799.4,207.4h-3.9c0,0,0.1-0.3,0.2-0.5c0.2-0.2,0.4-0.5,0.4-0.5h2.8c0,0,0.2,0.3,0.4,0.5
					C799.3,207.2,799.4,207.4,799.4,207.4z"/>
				<path class="st21" d="M798.4,204.4l0.9-0.7c0,0,1.1,1,1.8,2.2c0.5,1,0.4,2.5,0.4,4.5h-1l0,0c0-1.6,0-3.2-0.4-4
					C799.4,205.2,798.4,204.4,798.4,204.4z"/>
			</g>
		</g>
	</g>
</g>
<ellipse class="st18" cx="1519.5" cy="193.8" rx="21.9" ry="21.6"/>
<g>
	<g>
		<path class="st20" d="M1519.7,190.5c2.8-1.8,6-5.1,6.1-8.1c0.1-3.7,0.1-4.6,0.1-4.8h2c0,0,0,1.1-0.1,4.8c-0.1,4.9-4.1,7.9-7.1,10
			c-3.7,2.6-7,5.8-7.1,8.9c-0.1,4.8-0.1,4.8-0.1,4.8h-2c0-0.3,0-1.4,0.1-4.8C1511.7,196.5,1516.7,192.4,1519.7,190.5z"/>
		
			<rect x="1518.3" y="199.4" transform="matrix(2.527540e-02 -0.9997 0.9997 2.527540e-02 1277.6775 1716.9614)" class="st20" width="1.9" height="7.8"/>
		<path class="st20" d="M1523.2,200.6l-7.5-0.2c0,0,0.1-0.4,0.4-0.9c0.2-0.4,0.7-1,0.7-1l5.4,0.1c0,0,0.4,0.5,0.7,1
			C1523.1,200.1,1523.2,200.6,1523.2,200.6z"/>
		<path class="st20" d="M1523.2,193.8c0,0,2,1.8,3.2,4.2c0.4,0.8,0.8,1.9,0.8,3.6c-0.1,2.9-0.1,2.7-0.1,4.8h-2
			c0-1.5,0.1-2.8,0.1-4.8c0-1.3-0.4-2-0.8-2.8c-1.1-2.1-3-3.7-3-3.7L1523.2,193.8z"/>
		
			<rect x="1519" y="176.4" transform="matrix(2.527540e-02 -0.9997 0.9997 2.527540e-02 1301.3414 1695.2361)" class="st20" width="1.9" height="7.8"/>
		<path class="st20" d="M1516.1,183.1l7.5,0.2c0,0-0.1,0.5-0.4,1s-0.7,0.9-0.7,0.9l-5.4-0.1c0,0-0.4-0.5-0.7-1
			C1516.3,183.5,1516.1,183.1,1516.1,183.1z"/>
		<path class="st20" d="M1517.8,188.9l-1.7,1.3c0,0-2-1.9-3.3-4.4c-1-1.9-0.7-4.8-0.6-8.6h1.9l0,0c-0.1,3-0.2,6.2,0.6,7.7
			C1516,187.3,1517.8,188.9,1517.8,188.9z"/>
	</g>
</g>
<g>
	<g>
		<path class="st22" d="M1592.9,192.1c1.2,0.3,3,0.4,3.9-0.3c1.1-0.9,1.4-1.2,1.5-1.2l0.5,0.6c0,0-0.3,0.3-1.5,1.2
			c-1.5,1.2-3.4,0.8-4.8,0.5c-1.7-0.4-3.5-0.5-4.4,0.3c-1.4,1.2-1.4,1.2-1.4,1.2l-0.5-0.6c0.1-0.1,0.4-0.4,1.4-1.2
			C1589.1,191.4,1591.6,191.8,1592.9,192.1z"/>
		<polygon class="st22" points="1589.7,196.7 1587.8,194.5 1588.4,194 1590.3,196.3 		"/>
		<path class="st22" d="M1590.9,195.7l-1.9-2.2c0,0,0.2-0.1,0.4-0.1c0.2,0,0.5,0,0.5,0l1.3,1.6c0,0,0,0.2-0.1,0.4
			C1591,195.6,1590.9,195.7,1590.9,195.7z"/>
		<path class="st22" d="M1592.8,194c0,0,0,1-0.4,2c-0.1,0.3-0.3,0.7-0.8,1.1c-0.9,0.7-0.8,0.7-1.4,1.2l-0.5-0.6
			c0.4-0.4,0.8-0.7,1.4-1.2c0.4-0.3,0.5-0.6,0.6-0.9c0.3-0.8,0.3-1.8,0.3-1.8L1592.8,194z"/>
		<polygon class="st22" points="1595.3,188.2 1597.3,190.5 1596.7,191 1594.7,188.7 		"/>
		<path class="st22" d="M1594.2,189.2l1.9,2.2c0,0-0.2,0.1-0.4,0.1c-0.2,0-0.5,0-0.5,0l-1.3-1.6c0,0,0-0.3,0.1-0.4
			C1594.1,189.4,1594.2,189.2,1594.2,189.2z"/>
		<path class="st22" d="M1592.9,191.2l-0.8-0.2c0,0,0-1.1,0.5-2c0.3-0.8,1.2-1.4,2.4-2.4l0.5,0.6l0,0c-0.9,0.8-1.9,1.5-2.1,2.2
			C1592.9,190.3,1592.9,191.2,1592.9,191.2z"/>
	</g>
</g>
<path class="st18" d="M453.4,317.5c-38.2,46.3-99,62.5-160.6,55.9c-22.2-2.4-44.2-7.2-65.2-14c-8-2.6-14.5-5.2-21-10.4
	c-6.9-5.5-15.2-11.2-19.6-18.6c-4.3-7.1,1.6-8.9,8.4-5.2C328.7,398.7,368,308.3,368,308.3c7.7-29.5-35.3-30.6-44.3-16.8
	c-5.7,8.8,6.1,18.2-0.6,24.9c-6.8,6.9-29.1,7.3-33.9,7c-13.9-0.7-29-5.1-33.6-18.2c-3.3-9.6,1.5-20.1,6.4-28.5
	c32.5-56.2,172.6-15.8,237.6,13.3S650,340.6,730,313c20.9-7.2,48.5-19.7,52.1-42c2.8-17-12.8-36.6-32.6-22.8
	c-6.2,4.4-7.6,6.6-15.7,2c-18.8-10.7,37.6-52.1,61.5-13.8s58.1,19.9,58.1,19.9c158.9-82.7,235.9-4.6,235.9-4.6
	c188,127.2,417,84.3,420.4,25c3.4-59.2-63.2-18.9-63.2-18.9c6.8-75.1,95.7-11.8,95.7-11.8c100.8-99.2,176,2.6,158.9,36.3
	s-44.4,19.1-44.4,19.1c23.8-40.5-20.5-69.7-41-48.3s-57.5,40.6,25.6,96.5c75.2,50.6,253-27.3,253-27.3s-64.9,59.4-181.2,62.5
	s-170.9-75.4-170.9-75.4c-25.6,51.8-194.8,58.5-246.1,49.7c-51.3-8.8-104.3-24.9-203.4-81.6s-222.2,39.8-222.2,39.8
	c-97.4,55.2-136.7,14.8-136.7,14.8C576.6,400.5,462,317.3,462,317.3S456.1,314.2,453.4,317.5z"/>
<g>
	<g>
		<g>
			
				<radialGradient id="SVGID_11_" cx="53.5116" cy="-92.2711" r="5.0029" fx="50.8662" fy="-94.6063" gradientTransform="matrix(1 0 0 1 0 172.8616)" gradientUnits="userSpaceOnUse">
				<stop  offset="4.530000e-02" style="stop-color:#FFFFFF"/>
				<stop  offset="7.420000e-02" style="stop-color:#F4F7FB"/>
				<stop  offset="0.2729" style="stop-color:#AFC7DE"/>
				<stop  offset="0.4609" style="stop-color:#769EC6"/>
				<stop  offset="0.6327" style="stop-color:#497FB3"/>
				<stop  offset="0.7853" style="stop-color:#2968A5"/>
				<stop  offset="0.9129" style="stop-color:#155A9D"/>
				<stop  offset="1" style="stop-color:#0E559A"/>
			</radialGradient>
			<circle class="st23" cx="53.5" cy="80.6" r="5"/>
			
				<radialGradient id="SVGID_12_" cx="23.14" cy="-73.4693" r="4.9985" fx="20.4969" fy="-75.8024" gradientTransform="matrix(1 0 0 1 0 172.8616)" gradientUnits="userSpaceOnUse">
				<stop  offset="4.530000e-02" style="stop-color:#FFFFFF"/>
				<stop  offset="7.420000e-02" style="stop-color:#F4F7FB"/>
				<stop  offset="0.2729" style="stop-color:#AFC7DE"/>
				<stop  offset="0.4609" style="stop-color:#769EC6"/>
				<stop  offset="0.6327" style="stop-color:#497FB3"/>
				<stop  offset="0.7853" style="stop-color:#2968A5"/>
				<stop  offset="0.9129" style="stop-color:#155A9D"/>
				<stop  offset="1" style="stop-color:#0E559A"/>
			</radialGradient>
			<circle class="st24" cx="23.1" cy="99.4" r="5"/>
			
				<radialGradient id="SVGID_13_" cx="53.5116" cy="-74.4834" r="4.9985" fx="50.8685" fy="-76.8164" gradientTransform="matrix(1 0 0 1 0 172.8616)" gradientUnits="userSpaceOnUse">
				<stop  offset="4.530000e-02" style="stop-color:#FFFFFF"/>
				<stop  offset="7.420000e-02" style="stop-color:#F4F7FB"/>
				<stop  offset="0.2729" style="stop-color:#AFC7DE"/>
				<stop  offset="0.4609" style="stop-color:#769EC6"/>
				<stop  offset="0.6327" style="stop-color:#497FB3"/>
				<stop  offset="0.7853" style="stop-color:#2968A5"/>
				<stop  offset="0.9129" style="stop-color:#155A9D"/>
				<stop  offset="1" style="stop-color:#0E559A"/>
			</radialGradient>
			<circle class="st25" cx="53.5" cy="98.3" r="5"/>
			
				<radialGradient id="SVGID_14_" cx="85.1948" cy="-72.2955" r="4.9985" fx="82.5517" fy="-74.6285" gradientTransform="matrix(1 0 0 1 0 172.8616)" gradientUnits="userSpaceOnUse">
				<stop  offset="4.530000e-02" style="stop-color:#FFFFFF"/>
				<stop  offset="7.420000e-02" style="stop-color:#F4F7FB"/>
				<stop  offset="0.2729" style="stop-color:#AFC7DE"/>
				<stop  offset="0.4609" style="stop-color:#769EC6"/>
				<stop  offset="0.6327" style="stop-color:#497FB3"/>
				<stop  offset="0.7853" style="stop-color:#2968A5"/>
				<stop  offset="0.9129" style="stop-color:#155A9D"/>
				<stop  offset="1" style="stop-color:#0E559A"/>
			</radialGradient>
			<circle class="st26" cx="85.2" cy="100.6" r="5"/>
			
				<radialGradient id="SVGID_15_" cx="69.6811" cy="-65.7386" r="4.9964" fx="67.0391" fy="-68.0707" gradientTransform="matrix(1 0 0 1 0 172.8616)" gradientUnits="userSpaceOnUse">
				<stop  offset="4.530000e-02" style="stop-color:#FFFFFF"/>
				<stop  offset="7.420000e-02" style="stop-color:#F4F7FB"/>
				<stop  offset="0.2729" style="stop-color:#AFC7DE"/>
				<stop  offset="0.4609" style="stop-color:#769EC6"/>
				<stop  offset="0.6327" style="stop-color:#497FB3"/>
				<stop  offset="0.7853" style="stop-color:#2968A5"/>
				<stop  offset="0.9129" style="stop-color:#155A9D"/>
				<stop  offset="1" style="stop-color:#0E559A"/>
			</radialGradient>
			<circle class="st27" cx="69.6" cy="107.1" r="5"/>
			
				<radialGradient id="SVGID_16_" cx="84.0981" cy="-38.2101" r="4.9971" fx="81.4557" fy="-40.5425" gradientTransform="matrix(1 0 0 1 0 172.8616)" gradientUnits="userSpaceOnUse">
				<stop  offset="4.530000e-02" style="stop-color:#FFFFFF"/>
				<stop  offset="7.420000e-02" style="stop-color:#F4F7FB"/>
				<stop  offset="0.2729" style="stop-color:#AFC7DE"/>
				<stop  offset="0.4609" style="stop-color:#769EC6"/>
				<stop  offset="0.6327" style="stop-color:#497FB3"/>
				<stop  offset="0.7853" style="stop-color:#2968A5"/>
				<stop  offset="0.9129" style="stop-color:#155A9D"/>
				<stop  offset="1" style="stop-color:#0E559A"/>
			</radialGradient>
			<circle class="st28" cx="84.1" cy="134.7" r="5"/>
			
				<radialGradient id="SVGID_17_" cx="69.6811" cy="-46.7222" r="4.9948" fx="67.04" fy="-49.0535" gradientTransform="matrix(1 0 0 1 0 172.8616)" gradientUnits="userSpaceOnUse">
				<stop  offset="4.530000e-02" style="stop-color:#FFFFFF"/>
				<stop  offset="7.420000e-02" style="stop-color:#F4F7FB"/>
				<stop  offset="0.2729" style="stop-color:#AFC7DE"/>
				<stop  offset="0.4609" style="stop-color:#769EC6"/>
				<stop  offset="0.6327" style="stop-color:#497FB3"/>
				<stop  offset="0.7853" style="stop-color:#2968A5"/>
				<stop  offset="0.9129" style="stop-color:#155A9D"/>
				<stop  offset="1" style="stop-color:#0E559A"/>
			</radialGradient>
			<circle class="st29" cx="69.6" cy="126.1" r="5"/>
			
				<radialGradient id="SVGID_18_" cx="53.5116" cy="-20.5134" r="4.9985" fx="50.8685" fy="-22.8465" gradientTransform="matrix(1 0 0 1 0 172.8616)" gradientUnits="userSpaceOnUse">
				<stop  offset="4.530000e-02" style="stop-color:#FFFFFF"/>
				<stop  offset="7.420000e-02" style="stop-color:#F4F7FB"/>
				<stop  offset="0.2729" style="stop-color:#AFC7DE"/>
				<stop  offset="0.4609" style="stop-color:#769EC6"/>
				<stop  offset="0.6327" style="stop-color:#497FB3"/>
				<stop  offset="0.7853" style="stop-color:#2968A5"/>
				<stop  offset="0.9129" style="stop-color:#155A9D"/>
				<stop  offset="1" style="stop-color:#0E559A"/>
			</radialGradient>
			<circle class="st30" cx="53.5" cy="152.3" r="5"/>
			
				<radialGradient id="SVGID_19_" cx="53.5116" cy="-36.738" r="4.9985" fx="50.8685" fy="-39.0711" gradientTransform="matrix(1 0 0 1 0 172.8616)" gradientUnits="userSpaceOnUse">
				<stop  offset="4.530000e-02" style="stop-color:#FFFFFF"/>
				<stop  offset="7.420000e-02" style="stop-color:#F4F7FB"/>
				<stop  offset="0.2729" style="stop-color:#AFC7DE"/>
				<stop  offset="0.4609" style="stop-color:#769EC6"/>
				<stop  offset="0.6327" style="stop-color:#497FB3"/>
				<stop  offset="0.7853" style="stop-color:#2968A5"/>
				<stop  offset="0.9129" style="stop-color:#155A9D"/>
				<stop  offset="1" style="stop-color:#0E559A"/>
			</radialGradient>
			<circle class="st31" cx="53.5" cy="136.1" r="5"/>
			
				<radialGradient id="SVGID_20_" cx="37.3421" cy="-46.7222" r="4.9948" fx="34.701" fy="-49.0535" gradientTransform="matrix(1 0 0 1 0 172.8616)" gradientUnits="userSpaceOnUse">
				<stop  offset="4.530000e-02" style="stop-color:#FFFFFF"/>
				<stop  offset="7.420000e-02" style="stop-color:#F4F7FB"/>
				<stop  offset="0.2729" style="stop-color:#AFC7DE"/>
				<stop  offset="0.4609" style="stop-color:#769EC6"/>
				<stop  offset="0.6327" style="stop-color:#497FB3"/>
				<stop  offset="0.7853" style="stop-color:#2968A5"/>
				<stop  offset="0.9129" style="stop-color:#155A9D"/>
				<stop  offset="1" style="stop-color:#0E559A"/>
			</radialGradient>
			<circle class="st32" cx="37.3" cy="126.1" r="5"/>
			
				<radialGradient id="SVGID_21_" cx="37.3421" cy="-65.7386" r="4.9964" fx="34.7002" fy="-68.0707" gradientTransform="matrix(1 0 0 1 0 172.8616)" gradientUnits="userSpaceOnUse">
				<stop  offset="4.530000e-02" style="stop-color:#FFFFFF"/>
				<stop  offset="7.420000e-02" style="stop-color:#F4F7FB"/>
				<stop  offset="0.2729" style="stop-color:#AFC7DE"/>
				<stop  offset="0.4609" style="stop-color:#769EC6"/>
				<stop  offset="0.6327" style="stop-color:#497FB3"/>
				<stop  offset="0.7853" style="stop-color:#2968A5"/>
				<stop  offset="0.9129" style="stop-color:#155A9D"/>
				<stop  offset="1" style="stop-color:#0E559A"/>
			</radialGradient>
			<circle class="st33" cx="37.3" cy="107.1" r="5"/>
			
				<radialGradient id="SVGID_22_" cx="23.14" cy="-39.2967" r="4.9965" fx="20.498" fy="-41.6289" gradientTransform="matrix(1 0 0 1 0 172.8616)" gradientUnits="userSpaceOnUse">
				<stop  offset="4.530000e-02" style="stop-color:#FFFFFF"/>
				<stop  offset="7.420000e-02" style="stop-color:#F4F7FB"/>
				<stop  offset="0.2729" style="stop-color:#AFC7DE"/>
				<stop  offset="0.4609" style="stop-color:#769EC6"/>
				<stop  offset="0.6327" style="stop-color:#497FB3"/>
				<stop  offset="0.7853" style="stop-color:#2968A5"/>
				<stop  offset="0.9129" style="stop-color:#155A9D"/>
				<stop  offset="1" style="stop-color:#0E559A"/>
			</radialGradient>
			<circle class="st34" cx="23.1" cy="133.6" r="5"/>
		</g>
		<line class="st35" x1="53.5" y1="85.6" x2="53.5" y2="93.4"/>
		<line class="st35" x1="27.4" y1="102.1" x2="32.6" y2="105.6"/>
		<line class="st35" x1="48.5" y1="99.8" x2="41.3" y2="104.1"/>
		<line class="st35" x1="58.5" y1="99.4" x2="65.9" y2="103.9"/>
		<line class="st35" x1="36.5" y1="112" x2="36.5" y2="121.2"/>
		<line class="st35" x1="33" y1="128.6" x2="27.8" y2="131.9"/>
		<line class="st35" x1="41.1" y1="129.4" x2="49" y2="134"/>
		<line class="st35" x1="58.1" y1="134.3" x2="65.9" y2="129.5"/>
		<line class="st35" x1="70.9" y1="111.9" x2="70.8" y2="121.2"/>
		<line class="st35" x1="74.5" y1="106.1" x2="80.6" y2="102.6"/>
		<line class="st35" x1="74.1" y1="128.6" x2="80" y2="131.8"/>
	</g>
	<line class="st35" x1="53.5" y1="141.1" x2="53.5" y2="147.3"/>
</g>
</svg>
