<?xml version="1.0" encoding="utf-8"?>
<!-- Generator: Adobe Illustrator 23.0.3, SVG Export Plug-In . SVG Version: 6.00 Build 0)  -->
<svg version="1.1" id="图层_2" xmlns="http://www.w3.org/2000/svg" xmlns:xlink="http://www.w3.org/1999/xlink" x="0px" y="0px"
	 viewBox="0 0 352.42 350.15" style="enable-background:new 0 0 352.42 350.15;" xml:space="preserve">
<style type="text/css">
	.st0{fill:#50B775;}
	.st1{fill:#FFFFFF;}
	.st2{fill:#50B775;stroke:#F5E23B;stroke-width:0.25;stroke-miterlimit:10;}
	.st3{font-family:'STLiti';}
	.st4{font-size:34.6796px;}
	.st5{font-size:35.0653px;}
</style>
<path class="st0" d="M257.44,143.21c0,0,18.19,1.89,18.95,3.6V36.54c0,0-4.29-14.53-18.95-14.53c-14.65,0-219.79,0-219.79,0
	s-17.98,3.42-17.98,18.58s0,277.89,0,277.89s0.8,10.54,15.45,17.4h147.54c0,0-8.59-6.78-19.71-18.91l-115.2-1.01
	c0,0-9.6,3.54-8.59-19.71c1.01-23.24,0-246.06,0-246.06s0.51-9.6,13.64-7.58h195.03c0,0,8.59,0,9.09,10.61
	C257.44,63.83,257.44,143.21,257.44,143.21z"/>
<circle class="st0" cx="247.74" cy="252.24" r="88.78"/>
<path class="st1" d="M293.75,222.12l-8.98-8.98c-1.62-1.62-4.28-1.62-5.9,0l-42.33,42.34l-19.94-19.94c-1.62-1.62-4.27-1.62-5.89,0
	l-8.98,8.98c-1.62,1.62-1.62,4.28,0,5.9l31.76,31.76c1.43,1.43,3.68,1.6,5.3,0.49c0.38-0.19,0.74-0.44,1.06-0.76l53.9-53.9
	C295.37,226.39,295.37,223.74,293.75,222.12z"/>
<path class="st0" d="M190.1,111.31H91.83c-2.64,0-4.8-2.16-4.8-4.8V95.65c0-2.64,2.16-4.8,4.8-4.8h98.27c2.64,0,4.8,2.16,4.8,4.8
	v10.86C194.9,109.15,192.74,111.31,190.1,111.31z"/>
<path class="st0" d="M91.38,165.66h79.39c0,0-11.94,8.91-17.05,19.52H91.38c0,0-3.6,0-4.36-3.6v-11.75
	C87.03,169.83,87.41,166.99,91.38,165.66z"/>
<path class="st0" d="M92.56,233.71c0,0-4.8-0.25-5.31,4.55c-0.51,4.8,0,10.36,0,10.36s-0.51,4.55,5.31,5.05
	c5.81,0.51,40.42,0,40.42,0s-1.07-16.17,3.63-19.96L92.56,233.71z"/>
<g>
	<text transform="matrix(1 0 0 1 98.0227 81.1081)" class="st2 st3 st4">EGFR</text>
</g>
<g>
	<text transform="matrix(1 0 0 1 98.0227 152.4089)" class="st2 st3 st5">T790M</text>
</g>
</svg>
